<?xml version="1.0" standalone="no"?>
<!DOCTYPE svg PUBLIC "-//W3C//DTD SVG 20010904//EN"
 "http://www.w3.org/TR/2001/REC-SVG-20010904/DTD/svg10.dtd">
<svg version="1.0" xmlns="http://www.w3.org/2000/svg"
 width="1024.000000pt" height="1024.000000pt" viewBox="0 0 1024.000000 1024.000000"
 preserveAspectRatio="xMidYMid meet">
<metadata>
Created by potrace 1.14, written by Peter Selinger 2001-2017
</metadata>
<g transform="translate(0.000000,1024.000000) scale(0.100000,-0.100000)"
fill="#000000" stroke="none">
<path d="M3179 8516 c-2 -2 -42 -6 -89 -10 -47 -3 -94 -8 -105 -10 -21 -4 -88
-13 -145 -21 -36 -5 -47 -7 -135 -25 -27 -6 -60 -12 -71 -14 -30 -6 -246 -65
-264 -73 -8 -3 -21 -7 -27 -9 -15 -3 -101 -33 -128 -45 -11 -5 -45 -18 -75
-29 -30 -12 -68 -27 -85 -35 -16 -7 -57 -26 -90 -41 -33 -15 -63 -26 -67 -26
-5 1 -8 -3 -8 -8 0 -6 -6 -10 -12 -10 -14 0 -243 -125 -258 -140 -3 -3 -16
-11 -30 -18 -41 -21 -258 -178 -359 -260 -97 -79 -300 -276 -384 -372 -26 -30
-56 -64 -66 -75 -49 -56 -255 -341 -256 -355 0 -3 -17 -30 -37 -61 -19 -31
-58 -98 -84 -150 -27 -52 -53 -97 -57 -100 -5 -3 -9 -9 -8 -12 0 -6 -25 -66
-69 -162 -24 -52 -71 -175 -75 -197 -2 -9 -8 -25 -13 -35 -8 -15 -35 -102 -57
-183 -2 -8 -11 -40 -20 -70 -8 -30 -17 -68 -20 -85 -3 -16 -8 -37 -10 -45 -3
-8 -7 -32 -9 -54 -3 -21 -8 -46 -10 -55 -7 -22 -15 -66 -21 -121 -3 -25 -8
-56 -10 -70 -18 -100 -26 -586 -12 -715 3 -27 8 -77 11 -110 4 -33 9 -71 12
-85 3 -14 8 -41 10 -60 4 -29 18 -101 39 -200 14 -68 59 -225 89 -311 20 -57
38 -111 40 -120 17 -66 147 -344 221 -473 25 -44 45 -83 45 -88 0 -4 4 -8 10
-8 5 0 12 -11 16 -25 3 -14 10 -25 14 -25 4 0 13 -13 20 -30 7 -16 16 -30 19
-30 4 0 15 -16 24 -35 9 -19 21 -35 27 -35 5 0 10 -5 10 -11 0 -10 115 -164
175 -234 96 -114 140 -159 315 -327 51 -49 218 -184 300 -243 30 -22 60 -43
65 -47 98 -77 421 -253 590 -322 39 -16 89 -37 112 -48 23 -10 46 -18 51 -18
5 0 31 -8 58 -19 366 -139 906 -211 1349 -177 160 12 180 14 242 25 32 6 74
13 93 16 19 2 47 7 63 10 15 3 37 7 50 9 81 15 284 71 437 122 8 3 15 4 15 3
0 -1 19 8 43 20 23 12 42 19 42 17 0 -3 30 8 66 25 45 20 74 27 88 22 12 -4
24 -6 29 -5 4 1 7 -2 7 -6 0 -10 156 -85 265 -127 121 -48 290 -93 450 -120
113 -19 344 -24 490 -10 50 5 102 9 118 9 15 1 27 3 27 6 0 3 12 7 28 8 36 3
49 6 182 42 138 37 128 34 165 49 17 7 47 19 68 27 21 7 83 34 137 60 l98 46
23 -21 c13 -11 29 -21 36 -21 7 0 13 -3 13 -8 0 -4 8 -12 19 -17 10 -6 46 -25
80 -43 33 -18 64 -32 68 -33 5 0 15 -6 23 -13 16 -13 156 -62 200 -70 14 -3
50 -10 80 -15 125 -24 291 -18 430 15 74 18 223 74 228 86 2 4 10 8 18 8 18 0
173 96 244 152 65 51 129 108 178 161 34 36 62 48 62 26 0 -6 29 -54 64 -107
103 -156 232 -276 352 -327 95 -41 232 -37 324 7 94 46 206 144 285 251 25 34
51 69 58 78 39 52 157 288 209 419 47 117 139 391 153 459 11 47 14 58 29 111
8 30 17 66 20 80 2 14 13 66 25 115 11 50 22 104 25 120 3 17 8 39 10 50 2 11
7 40 11 65 4 25 9 54 11 65 7 33 13 68 19 110 3 23 8 52 10 65 3 14 7 45 10
70 3 25 8 61 11 80 3 19 7 51 9 70 3 32 12 107 20 185 2 17 6 66 10 110 3 44
8 105 10 136 16 209 19 310 19 694 1 432 -5 595 -29 875 -16 181 -26 267 -40
370 -3 19 -7 57 -10 84 -3 27 -8 52 -10 56 -2 3 -6 35 -10 70 -3 34 -7 66 -9
69 -2 3 -7 24 -10 46 -3 22 -11 63 -16 90 -5 28 -12 61 -14 75 -12 65 -27 137
-36 169 -5 20 -12 50 -15 66 -3 17 -7 35 -9 40 -1 6 -6 28 -11 50 -4 22 -11
47 -16 56 -4 9 -11 29 -13 45 -9 51 -99 337 -125 399 -35 82 -46 110 -44 112
6 8 -159 331 -176 343 -3 3 -12 16 -18 30 -20 45 -144 190 -205 241 -63 53
-162 107 -213 118 -39 8 -151 8 -191 -1 -82 -16 -201 -94 -289 -190 -55 -60
-165 -209 -165 -226 0 -4 -8 -17 -18 -30 l-18 -23 -81 78 c-89 85 -170 151
-248 200 -27 18 -54 36 -60 40 -21 17 -198 94 -257 113 -158 48 -360 61 -509
34 -86 -16 -289 -83 -289 -96 0 -4 -3 -7 -7 -6 -13 3 -110 -50 -177 -96 l-61
-43 -103 49 c-56 26 -128 57 -160 69 -95 34 -206 70 -227 73 -11 2 -51 11 -88
20 -37 9 -87 18 -110 21 -23 2 -62 8 -87 12 -62 10 -390 10 -474 0 -168 -20
-371 -71 -511 -127 -11 -4 -45 -18 -75 -30 -106 -43 -230 -112 -223 -123 4 -7
-4 -5 -17 4 -20 13 -170 71 -330 127 -19 6 -14 5 -145 41 -111 31 -133 37
-182 46 -16 3 -39 8 -53 11 -41 10 -60 13 -104 18 -22 3 -52 8 -66 11 -14 3
-50 7 -80 10 -30 2 -55 5 -55 6 0 8 -557 23 -566 15z"/>
</g>
</svg>
