<?xml version="1.0" standalone="no"?>
<!DOCTYPE svg PUBLIC "-//W3C//DTD SVG 20010904//EN"
 "http://www.w3.org/TR/2001/REC-SVG-20010904/DTD/svg10.dtd">
<svg version="1.0" xmlns="http://www.w3.org/2000/svg"
 width="328.000000pt" height="328.000000pt" viewBox="0 0 328.000000 328.000000"
 preserveAspectRatio="xMidYMid meet">
<metadata>
Created by potrace 1.14, written by Peter Selinger 2001-2017
</metadata>
<g transform="translate(0.000000,328.000000) scale(0.100000,-0.100000)"
fill="#000000" stroke="none">
<path d="M1420 3008 c-55 -11 -390 -174 -480 -234 -57 -37 -147 -120 -211
-194 -95 -111 -199 -295 -263 -467 -9 -23 -31 -64 -50 -90 -53 -75 -112 -200
-136 -288 -41 -156 -23 -263 75 -458 80 -157 146 -264 230 -371 133 -171 259
-298 363 -366 77 -50 249 -115 335 -125 26 -3 91 -21 145 -40 125 -43 240 -72
322 -81 36 -4 72 -8 80 -9 8 -1 18 5 22 14 6 14 7 14 7 -2 1 -15 8 -16 44 -11
72 9 137 26 143 35 3 5 9 7 14 4 8 -5 117 48 159 77 11 8 18 18 13 23 -4 5 -2
5 5 1 16 -9 148 84 280 197 71 62 190 184 236 245 86 111 184 317 226 471 29
108 30 113 37 202 6 73 3 101 -46 405 -22 134 -114 345 -143 327 -6 -3 -7 -1
-3 6 11 17 -105 128 -279 266 -82 65 -152 121 -155 125 -16 19 -208 156 -267
190 -189 108 -538 182 -703 148z m157 -30 c-7 -4 -9 -8 -4 -8 16 0 23 -4 35
-19 11 -14 12 -13 7 5 -4 14 0 24 10 28 11 4 14 2 8 -7 -4 -6 -8 -18 -8 -26 0
-8 -8 -15 -18 -17 -9 -1 -15 1 -12 6 3 4 -2 10 -10 14 -8 3 -19 -3 -24 -12 -6
-9 -11 -12 -11 -6 0 5 5 15 12 22 19 19 -3 14 -24 -5 -16 -15 -21 -15 -28 -3
-5 8 -6 18 -4 22 8 13 -10 9 -34 -8 -17 -12 -20 -19 -12 -34 7 -13 7 -21 -2
-26 -7 -4 -10 -3 -5 1 4 5 0 18 -8 31 -12 19 -12 24 0 34 8 7 15 9 15 6 0 -4
7 -3 15 2 19 10 119 11 102 0z m109 -33 c-3 -9 -11 -13 -18 -9 -8 5 -9 2 -5
-9 3 -10 2 -17 -4 -17 -6 0 -9 8 -7 18 2 9 10 16 17 14 9 -2 12 4 8 19 -4 16
-3 19 5 11 6 -6 8 -18 4 -27z m-283 5 c4 0 5 5 1 12 -4 7 -3 8 4 4 6 -4 9 -13
5 -22 -4 -11 -9 -12 -19 -3 -11 9 -18 8 -29 -1 -18 -15 -20 -5 -2 15 7 8 16
10 22 4 5 -5 13 -9 18 -9z m79 -12 c-7 -7 -12 -8 -12 -2 0 14 12 26 19 19 2
-3 -1 -11 -7 -17z m-151 -21 c-10 -9 -11 -8 -5 6 3 10 9 15 12 12 3 -3 0 -11
-7 -18z m252 3 c3 -11 -2 -25 -11 -32 -13 -11 -14 -11 -7 2 5 8 8 23 7 33 -4
23 4 22 11 -3z m-193 2 c0 -4 -10 -9 -22 -9 -18 -2 -20 0 -8 7 18 12 30 13 30
2z m144 -4 c-6 -9 -44 -6 -44 3 0 4 11 6 24 5 13 0 22 -4 20 -8z m176 2 c0 -5
-4 -10 -10 -10 -5 0 -10 5 -10 10 0 6 5 10 10 10 6 0 10 -4 10 -10z m-429 -23
c-10 -9 -11 -8 -5 6 3 10 9 15 12 12 3 -3 0 -11 -7 -18z m453 12 c-4 -8 0 -9
15 -4 13 4 21 2 21 -5 0 -6 4 -9 9 -5 5 3 12 1 16 -5 4 -7 12 -7 24 0 19 10
31 4 31 -14 0 -6 -5 -4 -10 4 -5 8 -10 10 -10 4 0 -7 -13 -10 -30 -9 -16 1
-30 -1 -30 -6 0 -5 -5 -9 -11 -9 -8 0 -8 4 0 14 8 10 9 16 1 21 -5 3 -10 -2
-10 -12 0 -15 -2 -16 -10 -3 -9 13 -10 13 -10 0 0 -13 -2 -13 -11 0 -9 13 -10
12 -5 -3 4 -12 2 -16 -7 -12 -6 4 -4 0 6 -8 12 -10 14 -17 8 -22 -6 -3 -11 -1
-11 6 0 7 -7 4 -15 -7 -13 -16 -14 -16 -9 -1 4 10 1 17 -6 17 -6 0 -9 -4 -6
-8 3 -5 -1 -9 -9 -9 -8 0 -15 5 -15 10 0 6 -3 8 -6 4 -4 -3 -20 1 -36 9 -17 9
-27 11 -24 6 4 -6 2 -13 -4 -17 -5 -3 -10 -1 -10 4 0 6 -4 11 -10 11 -12 0
-34 -40 -25 -48 3 -3 9 4 12 17 l6 24 18 -24 c11 -14 19 -18 19 -10 0 11 3 11
15 1 14 -11 19 -7 16 12 0 4 6 5 14 1 12 -4 13 -9 4 -19 -11 -14 -9 -16 21
-18 8 -1 14 -7 13 -14 -5 -20 15 -13 22 8 4 11 11 18 16 14 5 -3 6 -10 3 -16
-4 -6 -2 -8 4 -4 6 3 18 -4 27 -16 9 -14 18 -19 23 -13 4 6 18 12 32 13 21 3
23 1 12 -9 -9 -10 -48 -14 -140 -14 -70 0 -133 -4 -139 -8 -14 -9 -17 3 -5 19
4 5 -1 1 -10 -9 -10 -10 -22 -16 -28 -12 -5 3 -10 2 -10 -3 0 -5 -16 -8 -35
-6 -19 1 -33 -2 -30 -7 4 -5 -1 -6 -9 -3 -9 3 -16 1 -16 -6 0 -6 -4 -9 -8 -6
-4 2 -14 1 -22 -4 -8 -5 -19 -5 -26 1 -16 13 -44 0 -37 -18 5 -13 2 -13 -26 1
-17 9 -36 14 -41 11 -13 -8 -13 8 0 23 7 9 7 9 -2 2 -19 -16 -29 -12 -17 8 11
17 79 27 79 10 0 -4 5 -8 11 -8 8 0 7 5 -1 15 -12 14 -10 15 12 11 23 -4 25
-1 23 26 -2 22 1 28 12 23 13 -4 13 -1 -1 20 -20 30 -3 34 18 4 l15 -22 -2 23
c-1 13 -11 26 -24 31 -13 5 -23 11 -23 13 0 3 7 3 15 -1 9 -3 22 2 30 13 13
19 13 19 12 0 -1 -10 4 -21 11 -23 6 -3 10 1 9 9 -2 7 -2 10 0 6 3 -5 9 -8 14
-8 6 0 8 3 6 8 -3 4 8 7 23 7 16 1 26 -3 23 -8 -3 -5 0 -7 8 -5 8 3 13 12 11
19 -1 9 3 8 11 -3 8 -10 20 -18 27 -18 10 0 10 3 0 15 -17 20 -5 19 15 -2 14
-14 20 -14 37 -4 11 7 17 8 13 2 -3 -6 1 -11 9 -11 9 0 15 6 14 13 -2 8 12 12
44 12 26 0 53 6 59 13 16 15 22 16 13 1z m76 1 c8 -5 11 -10 5 -10 -5 0 -17 5
-25 10 -8 5 -10 10 -5 10 6 0 17 -5 25 -10z m-529 -47 c13 -14 18 -23 10 -18
-10 6 -12 4 -6 -5 5 -9 4 -11 -3 -6 -7 4 -12 5 -12 2 0 -16 20 -13 36 6 11 12
13 18 7 14 -7 -4 -13 -5 -13 -2 0 2 -3 11 -6 20 -3 9 -1 16 6 16 6 0 9 -4 6
-9 -3 -5 1 -12 10 -15 9 -4 14 -9 11 -13 -4 -3 -2 -12 4 -19 9 -11 7 -15 -6
-20 -13 -5 -14 -9 -3 -15 9 -6 9 -9 1 -9 -20 0 -24 18 -6 29 10 6 14 11 10 11
-4 0 -20 -8 -35 -17 -15 -9 -24 -13 -20 -8 4 4 3 14 -3 21 -7 8 -7 14 1 19 11
7 5 25 -9 25 -11 0 -10 -33 2 -47 6 -9 6 -13 -1 -13 -13 0 -28 22 -27 40 0 8
-4 19 -10 23 -6 5 -3 7 8 3 9 -3 17 -1 17 4 0 15 4 13 31 -17z m619 9 c14 0
32 -9 40 -19 18 -21 40 -28 40 -12 0 6 7 3 16 -5 8 -9 19 -14 23 -11 5 2 16
-4 25 -14 17 -18 17 -20 -3 -31 -12 -6 -26 -8 -31 -5 -6 3 -7 -1 -4 -9 7 -17
13 -19 57 -18 24 1 26 -2 16 -14 -6 -8 -8 -14 -4 -14 4 0 2 -6 -4 -14 -9 -10
-8 -16 4 -26 12 -10 15 -10 15 1 1 9 4 8 11 -4 7 -12 17 -16 32 -12 15 4 18 3
9 -3 -11 -7 -11 -10 3 -15 10 -5 14 -3 9 5 -4 6 -3 8 3 5 6 -4 17 1 24 10 8
10 9 14 2 10 -6 -4 -14 -3 -18 3 -3 5 1 10 10 10 9 0 13 5 10 11 -5 7 -13 5
-24 -5 -22 -20 -28 -20 -28 -1 0 9 6 14 13 11 8 -3 16 -1 19 3 8 14 -21 21
-33 9 -16 -16 -37 4 -40 38 -2 24 0 25 16 13 27 -21 28 -23 9 -16 -15 6 -16 4
-7 -13 6 -11 13 -20 16 -20 3 0 2 5 -2 12 -4 7 -3 8 4 4 7 -4 12 -2 12 4 0 7
7 5 16 -4 8 -9 20 -14 25 -10 5 3 8 0 7 -8 -2 -7 3 -12 11 -10 12 3 12 0 1
-13 -11 -13 -10 -15 6 -12 11 1 26 6 34 11 12 7 13 7 2 -5 -7 -8 -17 -15 -22
-15 -6 -1 -15 -2 -21 -3 -5 0 -8 -5 -4 -10 6 -10 37 -7 57 5 6 4 8 3 4 -4 -3
-6 -2 -13 4 -17 5 -3 10 -1 10 6 0 7 3 9 6 6 4 -4 1 -14 -7 -24 -12 -15 -12
-16 4 -10 9 3 17 2 17 -3 0 -6 -6 -10 -14 -10 -7 0 -19 -6 -25 -14 -10 -12 -8
-17 11 -27 21 -11 22 -11 9 4 -7 10 -11 18 -7 18 3 1 11 2 16 3 6 0 15 8 20
16 5 8 10 10 10 5 0 -6 -5 -16 -12 -23 -9 -9 -9 -12 0 -12 6 0 16 8 21 18 6 9
11 12 11 5 0 -6 -4 -15 -10 -18 -5 -3 -10 -14 -10 -23 1 -16 2 -15 14 1 8 10
23 20 35 22 18 3 20 1 11 -16 -6 -10 -8 -20 -5 -20 3 -1 9 -2 14 -3 5 0 13 -5
18 -10 5 -5 2 -6 -6 -1 -9 5 -12 3 -9 -6 3 -8 10 -14 16 -14 5 0 13 -3 17 -7
4 -4 13 -4 21 -1 8 3 14 0 14 -7 0 -6 -4 -8 -10 -5 -5 3 -10 -4 -10 -16 0 -19
2 -20 16 -8 19 15 47 21 38 8 -3 -5 -9 -7 -14 -4 -18 11 -22 -18 -5 -33 17
-16 17 -16 12 1 -4 11 -3 16 3 12 6 -4 10 -12 9 -18 -3 -25 1 -38 11 -32 11 7
14 -8 4 -18 -8 -7 -33 16 -28 25 2 4 0 9 -5 12 -7 5 -8 -22 -1 -31 2 -2 3 -9
4 -15 0 -7 6 -13 11 -13 15 -1 52 -24 38 -25 -7 0 -13 -10 -12 -22 0 -22 1
-22 11 2 17 38 17 49 3 44 -7 -3 -16 0 -20 6 -4 7 2 9 19 6 14 -2 27 1 30 7 3
7 3 -1 0 -18 -3 -16 -6 -36 -6 -42 -1 -7 -5 -13 -10 -13 -4 0 -8 -5 -8 -10 0
-6 7 -6 19 1 10 7 18 24 19 42 1 34 12 51 12 18 0 -13 4 -19 10 -16 6 4 10 3
9 -2 -3 -20 2 -33 13 -30 7 1 13 -4 14 -10 1 -7 2 -18 3 -24 0 -5 6 -7 11 -4
6 3 10 1 10 -5 0 -6 5 -8 12 -4 6 4 8 3 4 -4 -3 -6 1 -15 10 -20 15 -8 15 -10
0 -15 -11 -4 -15 -3 -10 4 4 8 0 7 -15 0 -25 -14 -28 -23 -4 -14 12 5 14 3 8
-8 -7 -11 -6 -12 6 -3 16 13 51 15 43 2 -3 -4 0 -8 7 -8 7 0 9 -3 6 -6 -4 -4
-13 -1 -21 5 -11 9 -16 9 -22 0 -5 -8 -3 -9 6 -4 10 6 12 4 7 -9 -4 -10 -3
-15 3 -11 5 3 18 1 27 -5 17 -11 17 -11 1 -6 -10 3 -18 1 -18 -4 0 -12 36 -14
43 -2 2 4 2 2 1 -5 -2 -6 4 -17 11 -23 8 -7 14 -15 13 -18 0 -4 1 -10 2 -14 1
-5 3 -14 4 -20 1 -7 10 -12 21 -11 11 1 14 0 8 -3 -16 -7 -17 -25 -2 -21 6 1
14 -5 16 -13 3 -10 2 -11 -4 -4 -4 6 -16 10 -26 8 -9 -1 -15 2 -12 7 4 5 -1 6
-9 3 -12 -4 -12 -9 -3 -18 11 -12 23 -16 59 -17 9 0 28 -18 43 -41 15 -22 29
-37 32 -34 3 3 0 12 -7 21 -7 8 -9 15 -4 15 5 0 1 5 -9 11 -13 8 -15 14 -7 29
7 14 5 24 -11 42 -18 20 -20 21 -14 3 5 -16 4 -17 -6 -8 -9 9 -9 16 -1 26 7 8
9 16 6 19 -3 3 0 9 7 14 8 5 10 3 4 -6 -6 -9 -4 -11 5 -5 8 5 11 4 7 -2 -3 -5
0 -10 8 -10 13 0 13 3 -1 18 -9 10 -22 15 -30 12 -17 -6 -19 13 -2 23 7 5 8 3
3 -5 -6 -10 -3 -11 14 -2 11 7 21 14 21 17 0 3 -5 2 -12 -2 -6 -4 -8 -3 -5 4
4 5 4 17 1 26 -4 12 -11 13 -24 6 -9 -5 -20 -7 -23 -4 -3 3 -8 0 -13 -7 -5 -8
-3 -10 6 -4 9 6 11 4 5 -5 -5 -8 -4 -11 2 -7 5 3 10 0 10 -8 0 -20 -13 -19
-21 1 -3 9 -11 12 -18 8 -10 -6 -10 -4 -2 7 6 8 10 22 9 32 -2 9 1 17 7 17 6
0 8 -7 4 -15 -4 -12 -2 -13 13 -6 10 6 21 8 24 5 3 -3 8 0 13 7 5 8 3 10 -6 4
-8 -5 -11 -4 -6 3 4 7 -1 10 -14 7 -20 -4 -28 9 -11 19 15 10 61 -33 54 -51
-5 -12 -3 -14 7 -8 8 5 11 3 8 -6 -3 -8 2 -23 11 -33 12 -14 13 -20 4 -23 -7
-3 -13 -9 -13 -15 0 -6 7 -8 14 -5 10 4 13 1 10 -7 -3 -8 0 -17 5 -21 6 -3 9
-11 5 -16 -3 -5 2 -22 11 -36 l18 -26 -31 21 -30 22 2 -25 c0 -14 7 -27 15
-30 9 -3 11 0 7 10 -8 22 2 18 15 -6 6 -12 7 -19 1 -15 -5 3 -13 -2 -16 -11
-4 -9 -2 -20 4 -23 8 -5 6 -9 -5 -14 -11 -4 -14 -12 -10 -27 7 -20 7 -21 -12
-2 -21 19 -20 38 0 27 7 -4 9 -4 5 0 -3 4 -8 6 -11 4 -10 -8 -35 25 -30 40 4
15 3 15 -6 2 -7 -10 -11 -11 -11 -3 0 7 -3 12 -7 11 -5 0 -16 2 -26 7 -15 6
-16 10 -5 17 10 7 8 8 -5 4 -13 -4 -16 -2 -11 7 4 6 -3 3 -17 -8 -13 -11 -26
-21 -29 -23 -3 -2 4 -2 14 0 10 1 21 -3 24 -11 3 -9 0 -11 -8 -6 -7 4 -5 -6 5
-25 16 -31 16 -33 0 -26 -9 3 -18 6 -21 6 -2 0 -1 8 2 18 5 13 4 14 -4 3 -10
-15 -5 -44 7 -37 3 2 11 -7 18 -20 13 -27 -1 -33 -16 -6 -6 9 -11 12 -11 5 0
-6 5 -15 11 -19 8 -5 4 -13 -12 -26 -15 -13 -18 -18 -7 -14 9 2 19 0 22 -7 3
-7 4 -3 3 7 -1 10 3 21 9 23 6 2 10 -10 10 -26 0 -24 -4 -30 -19 -28 -11 1
-21 -4 -23 -11 -1 -7 0 -8 3 -2 8 17 22 11 20 -10 -1 -12 -7 -18 -14 -16 -12
5 -17 -6 -14 -26 0 -5 -2 -8 -7 -8 -13 0 -34 17 -32 26 1 5 -3 9 -9 11 -7 1
-8 0 -1 -4 5 -2 8 -8 5 -13 -3 -4 6 -15 20 -24 14 -9 25 -22 25 -28 0 -6 -10
-3 -22 8 -13 10 -18 12 -12 4 6 -8 9 -27 8 -42 -2 -19 3 -29 17 -33 11 -4 17
-11 13 -16 -4 -7 -10 -6 -18 0 -7 6 -17 6 -26 1 -13 -9 -13 -10 0 -11 8 -1 19
-1 23 0 5 1 7 -4 4 -11 -2 -7 -10 -12 -16 -11 -6 2 -11 -2 -11 -7 0 -6 5 -10
11 -10 5 0 7 -6 3 -12 -5 -9 -2 -8 9 1 10 8 20 11 23 8 3 -2 -13 -18 -35 -33
-46 -33 -51 -48 -20 -65 l21 -11 -22 -23 c-14 -15 -18 -25 -11 -30 6 -3 11
-14 11 -23 0 -14 -4 -12 -19 7 -14 18 -20 21 -26 11 -5 -9 -4 -11 3 -6 18 11
14 -5 -5 -19 -13 -9 -13 -14 -3 -20 8 -5 11 -4 7 2 -13 22 22 21 37 0 9 -12
13 -15 10 -6 -3 9 5 27 16 40 21 24 22 20 3 -28 -3 -10 -3 -15 2 -11 12 11 46
90 36 83 -13 -7 -42 5 -36 16 3 4 12 6 19 3 8 -3 16 3 19 15 4 15 1 18 -12 14
-12 -5 -13 -3 -4 7 6 7 9 18 7 25 -3 6 2 12 11 12 8 0 15 -5 14 -11 -1 -6 -1
-18 0 -26 1 -13 3 -13 10 -1 6 9 6 22 1 32 -9 16 10 46 22 34 2 -3 5 2 5 10 0
8 -4 12 -8 10 -3 -3 -13 2 -20 11 -11 14 -10 19 10 35 13 11 21 22 17 26 -3 4
-13 -3 -22 -15 -22 -31 -38 -27 -18 4 15 21 15 27 4 34 -8 5 -18 6 -22 4 -10
-6 -10 -1 -2 20 6 15 7 15 18 1 6 -9 18 -13 27 -10 18 7 20 51 2 48 -6 -1 -14
5 -17 13 -4 11 -1 14 13 9 12 -4 21 0 25 11 5 14 4 15 -8 5 -12 -10 -15 -9
-13 8 1 13 7 20 16 18 23 -3 25 30 3 38 -35 10 -17 50 21 50 15 0 22 6 21 18
-2 19 4 21 26 7 10 -6 11 -10 3 -10 -7 0 -13 -4 -13 -8 0 -5 18 -8 40 -6 36 2
40 0 35 -17 -5 -15 -3 -18 12 -13 10 3 14 2 8 -3 -10 -7 -11 -22 -5 -40 2 -5
4 -12 5 -18 2 -5 4 -12 5 -15 9 -25 7 -90 -2 -90 -9 0 -9 -3 0 -12 17 -17 15
-39 -5 -55 -12 -8 -13 -12 -4 -11 9 2 14 -8 15 -30 0 -19 -2 -36 -6 -38 -3 -2
-4 -14 0 -26 4 -16 2 -19 -9 -13 -11 7 -12 6 -3 -6 11 -15 9 -79 -4 -88 -4 -3
-8 -19 -9 -36 -5 -52 -6 -55 -27 -56 -16 0 -17 -2 -6 -7 17 -8 17 -10 5 -60
-7 -29 -20 -36 -20 -10 0 6 -11 17 -25 26 l-25 14 23 -19 c18 -15 20 -21 10
-32 -8 -8 -8 -11 -2 -8 7 4 15 -1 18 -10 4 -10 1 -20 -9 -26 -12 -6 -13 -12
-6 -21 8 -9 2 -21 -19 -43 -17 -18 -26 -33 -19 -35 6 -2 -2 -18 -20 -37 -31
-33 -39 -47 -21 -36 6 3 7 -1 3 -10 -4 -12 -8 -13 -13 -5 -9 15 -18 1 -15 -23
2 -9 -1 -14 -7 -11 -5 3 -12 -3 -15 -15 -3 -12 -10 -21 -15 -21 -5 0 -6 -4 -3
-10 4 -6 -1 -7 -11 -3 -12 4 -15 3 -10 -6 4 -6 4 -11 -1 -10 -20 4 -27 -2 -13
-12 13 -9 12 -10 -3 -5 -22 7 -35 -22 -16 -36 11 -8 11 -9 -3 -5 -9 3 -19 1
-21 -6 -3 -9 -8 -9 -19 1 -9 7 -20 12 -24 11 -21 -4 -35 2 -29 12 4 6 14 8 22
5 9 -4 12 -1 8 7 -4 6 2 2 12 -11 10 -13 22 -20 26 -16 11 12 8 26 -4 18 -8
-4 -8 0 0 15 7 11 9 21 5 21 -3 0 -1 6 5 14 9 11 9 15 -1 18 -8 3 -6 7 6 11 9
4 15 3 11 -2 -3 -5 0 -13 6 -17 7 -4 9 -3 6 3 -4 6 5 10 21 9 23 -1 27 3 26
26 -1 21 3 26 19 22 11 -2 17 -1 13 3 -3 3 -1 12 5 20 6 7 8 13 3 13 -5 1 2 7
16 15 14 8 19 14 12 15 -7 0 -10 5 -6 11 4 8 9 7 16 -2 7 -11 8 -10 4 4 -3 11
-2 16 4 12 13 -8 13 -2 -2 30 -8 18 -14 22 -20 13 -12 -19 -9 -36 3 -18 8 12
9 11 7 -5 -3 -13 -10 -19 -23 -17 -14 2 -16 0 -7 -6 10 -7 6 -15 -14 -35 -35
-35 -50 -34 -74 5 -11 18 -20 28 -20 23 0 -6 7 -20 15 -32 8 -12 11 -24 7 -27
-5 -3 -14 6 -21 20 -6 14 -15 23 -20 19 -5 -3 -12 2 -14 10 -3 11 -4 10 -3 -2
1 -10 8 -17 15 -15 9 2 11 -3 7 -13 -3 -9 -2 -14 2 -12 4 2 20 -9 35 -23 26
-25 27 -28 11 -41 -16 -12 -17 -12 -11 3 3 10 1 20 -5 24 -6 4 -8 3 -5 -3 4
-6 -5 -15 -18 -21 -17 -8 -23 -16 -18 -28 4 -10 2 -15 -3 -11 -6 3 -16 1 -24
-5 -12 -8 -12 -9 3 -4 10 3 17 0 17 -7 0 -7 -11 -13 -24 -13 -17 -1 -23 2 -19
12 6 17 -13 19 -23 3 -3 -6 -1 -15 6 -19 8 -5 9 -10 2 -14 -6 -4 -15 2 -21 11
-6 10 -11 13 -11 7 0 -5 5 -15 12 -22 6 -6 9 -15 5 -19 -4 -3 -13 2 -21 12
-12 16 -17 17 -37 7 l-24 -11 25 5 c22 4 25 1 27 -23 1 -26 0 -27 -13 -8 -8
10 -14 14 -14 9 0 -6 6 -16 13 -23 10 -11 8 -12 -10 -6 -15 4 -23 2 -23 -5 0
-6 -4 -8 -10 -5 -5 3 -10 1 -10 -5 0 -10 29 -8 63 5 13 6 17 3 14 -14 -2 -11
-7 -24 -11 -28 -4 -5 -6 -2 -4 6 1 7 -3 16 -10 18 -7 3 -11 -1 -10 -7 2 -7 -4
-15 -12 -17 -13 -4 -13 -3 0 6 12 9 11 11 -9 11 -16 0 -21 -4 -18 -15 4 -8 2
-17 -4 -20 -5 -4 -7 -11 -4 -16 4 -5 1 -9 -5 -9 -7 0 -10 7 -6 15 3 8 0 15 -6
15 -9 0 -9 3 0 12 7 7 12 16 12 22 0 5 -6 1 -14 -9 -8 -11 -11 -26 -8 -35 5
-13 3 -13 -11 -1 -16 12 -17 12 -10 -5 6 -17 5 -18 -12 -4 -10 8 -16 10 -12 3
4 -6 1 -14 -5 -16 -7 -3 2 -4 19 -3 18 2 30 -1 27 -6 -3 -5 -12 -7 -20 -4 -8
3 -14 1 -14 -4 0 -17 -29 1 -36 22 -3 11 -8 17 -11 14 -3 -3 1 -16 10 -30 14
-21 14 -26 2 -36 -15 -13 -16 -12 -19 29 -1 8 -7 16 -14 17 -7 1 -8 0 -2 -3 7
-3 6 -11 -1 -24 -5 -11 -15 -17 -21 -13 -7 4 -6 10 3 16 11 8 11 9 -1 5 -8 -2
-15 -9 -15 -15 0 -5 -3 -14 -7 -18 -5 -4 -8 -2 -8 4 0 7 -5 12 -11 12 -5 0 -8
-4 -5 -9 15 -23 -61 -41 -77 -18 -6 8 -7 8 -4 -3 4 -17 63 -24 73 -9 3 5 10 6
16 3 7 -5 8 -2 3 7 -5 8 -5 11 0 7 4 -4 14 -3 20 2 9 8 14 6 18 -5 4 -8 3 -14
-1 -14 -22 4 -32 -2 -26 -13 6 -10 4 -10 -8 0 -11 9 -18 10 -23 2 -4 -6 -12
-10 -18 -9 -7 1 -23 1 -37 0 l-25 -2 22 -18 c19 -16 20 -20 7 -25 -8 -3 -12
-2 -9 3 9 16 -15 24 -30 11 -12 -10 -18 -10 -30 0 -22 18 -31 5 -11 -15 19
-20 20 -26 3 -19 -8 3 -14 -2 -14 -11 0 -10 6 -14 15 -10 8 3 12 0 9 -7 -2 -7
-10 -12 -16 -10 -15 3 -14 -7 3 -24 19 -18 32 -18 17 0 -13 16 -5 24 29 31 13
2 20 -2 20 -11 0 -11 -6 -14 -22 -9 l-23 7 22 -16 c14 -11 21 -25 19 -42 -3
-26 -23 -47 -38 -38 -4 3 -8 0 -8 -5 0 -6 -10 -11 -22 -11 -19 0 -20 -2 -8
-11 13 -9 12 -10 -2 -5 -10 3 -22 -2 -27 -12 -6 -9 -11 -12 -11 -7 0 18 -36
34 -51 24 -11 -8 -9 -9 6 -7 12 2 20 -3 20 -12 0 -8 -6 -14 -13 -12 -7 1 -21
-2 -31 -7 -28 -15 -84 -23 -76 -11 3 5 1 10 -4 10 -6 0 -11 -6 -11 -12 -1 -8
-6 -6 -14 5 -7 9 -17 17 -21 17 -4 0 -2 -6 4 -14 7 -9 8 -17 3 -20 -6 -3 -13
1 -16 9 -4 11 -11 13 -23 7 -16 -7 -33 -8 -85 -4 -10 1 -18 6 -18 10 0 10 41
9 58 -1 6 -5 12 -4 12 0 0 15 -38 34 -42 21 -3 -8 -10 -8 -26 1 -23 12 -47 6
-37 -9 3 -5 0 -12 -6 -16 -7 -4 -9 -3 -5 4 3 6 2 13 -4 17 -6 4 -5 12 5 21 18
18 11 34 -14 34 -28 0 -31 -10 -14 -44 13 -26 14 -29 1 -19 -8 7 -19 9 -23 5
-5 -4 -5 -1 -1 6 4 7 1 12 -9 12 -10 0 -13 -5 -9 -12 4 -7 3 -8 -4 -4 -15 9
-3 38 12 30 6 -4 3 1 -6 12 -14 14 -20 15 -30 6 -7 -7 -17 -12 -22 -12 -6 0
-5 5 2 12 15 15 15 28 0 28 -6 0 -8 -3 -5 -7 4 -3 -1 -15 -10 -26 -10 -11 -13
-17 -6 -14 6 4 14 3 17 -2 4 -5 -2 -8 -11 -6 -10 1 -17 8 -15 15 1 7 -4 9 -16
6 -24 -8 -58 17 -47 34 6 10 11 7 17 -10 6 -17 12 -20 20 -12 6 6 18 8 27 5
13 -4 14 -3 1 5 -10 8 -19 7 -28 -1 -12 -9 -14 -8 -11 8 3 11 9 20 14 21 6 0
19 4 30 8 11 4 32 12 47 18 15 5 32 7 37 3 6 -3 11 0 11 7 0 15 48 40 61 32 5
-3 9 0 9 5 0 6 4 11 9 11 6 0 24 13 42 30 29 26 58 33 43 9 -3 -5 -10 -6 -16
-3 -7 5 -8 2 -3 -6 6 -9 4 -11 -6 -5 -12 8 -12 6 0 -8 16 -20 1 -23 -18 -4
-11 10 -11 8 0 -10 7 -12 18 -19 23 -15 6 3 21 7 34 8 21 2 22 1 10 -14 -9
-11 -5 -11 13 3 15 11 25 23 23 26 -7 13 28 19 44 9 14 -9 13 -10 -5 -5 -25 7
-30 -4 -10 -24 10 -11 9 -13 -6 -7 -12 4 -29 -2 -44 -14 -14 -11 -22 -20 -18
-20 5 0 17 8 28 17 18 17 20 16 45 -15 15 -18 32 -32 37 -32 6 0 2 5 -7 11
-10 5 -18 15 -18 21 0 9 3 9 12 0 7 -7 17 -12 23 -12 5 0 1 7 -9 15 -10 8 -23
12 -27 9 -4 -2 -7 5 -6 16 2 24 12 26 21 4 6 -15 8 -15 31 0 27 18 28 17 19
-8 -3 -9 -10 -13 -15 -10 -5 3 -6 -2 -3 -10 7 -19 24 -11 24 12 0 12 3 13 11
5 7 -7 8 -17 3 -25 -13 -20 -15 -48 -5 -48 6 0 8 9 6 20 -2 12 2 23 11 27 11
4 12 9 3 19 -18 22 6 17 25 -5 17 -19 56 -25 56 -8 0 4 -6 7 -12 6 -7 -1 -19
-1 -27 0 -18 1 -5 16 15 16 7 0 14 5 14 10 0 12 -31 14 -47 3 -7 -5 -14 -4
-18 3 -6 8 -10 7 -17 -2 -7 -11 -8 -10 -4 4 4 12 2 16 -6 11 -7 -5 -8 -3 -4 5
5 7 0 19 -10 27 -11 9 -14 13 -7 10 6 -4 14 -2 18 4 3 5 11 10 17 10 7 0 7 -4
-1 -13 -8 -10 -7 -14 3 -14 8 0 13 8 11 18 -3 17 -2 17 31 2 19 -9 34 -21 34
-27 0 -6 -5 -5 -12 2 -7 7 -17 12 -23 12 -11 -1 33 -40 45 -40 9 0 7 41 -4 58
-4 6 4 9 21 7 24 -2 25 -1 9 10 -16 12 -16 14 6 34 19 19 20 23 8 31 -8 5 -22
9 -30 9 -8 0 -5 -4 8 -9 12 -5 22 -12 22 -16 0 -3 -7 -3 -16 0 -8 3 -13 2 -10
-3 3 -5 -3 -20 -14 -33 -11 -14 -17 -28 -14 -31 3 -3 -3 -3 -14 0 -20 5 -20 6
6 28 30 26 23 47 -9 27 -18 -11 -19 -10 -15 13 3 13 8 30 11 36 4 6 -2 17 -13
25 -17 12 -20 23 -13 52 2 7 31 -27 31 -36 0 -14 28 -23 36 -11 3 5 -1 21 -10
34 -15 22 -14 25 2 34 9 6 12 11 7 11 -6 0 -16 -5 -23 -12 -9 -9 -12 -9 -12
-1 0 7 5 15 10 18 6 4 8 10 5 15 -3 4 3 14 12 21 14 12 15 11 9 -9 -5 -15 -3
-22 5 -22 7 0 9 3 6 7 -4 3 -2 12 4 19 8 10 16 11 30 3 27 -14 42 -3 28 23 -9
16 -7 24 12 44 18 19 26 21 43 13 20 -9 20 -9 3 5 -10 8 -18 17 -18 20 3 21
-1 25 -16 19 -15 -6 -15 -7 3 -14 10 -4 16 -8 12 -8 -5 -1 -10 0 -12 2 -8 5
-45 -36 -40 -44 3 -5 0 -9 -5 -9 -6 0 -11 5 -11 11 0 5 -5 7 -11 3 -8 -5 -8
-9 1 -14 6 -4 12 -11 13 -16 1 -5 5 -8 9 -7 3 1 9 -4 12 -12 3 -8 2 -15 -3
-15 -11 0 -59 39 -48 40 4 0 3 9 -3 20 -9 16 -8 19 6 13 13 -5 15 -3 9 8 -7
12 -6 12 7 1 10 -8 19 -9 22 -3 3 5 0 11 -6 14 -7 2 -9 8 -5 13 4 5 12 2 16
-5 6 -8 11 -9 15 -3 3 6 2 13 -3 17 -6 3 -7 13 -4 21 4 12 8 13 14 3 10 -17
42 8 35 28 -3 8 -2 11 3 8 5 -3 13 -1 16 5 4 6 14 10 24 8 9 -2 34 14 54 34
25 26 42 35 55 31 9 -3 14 -3 10 2 -8 8 15 35 30 35 6 0 13 7 16 16 3 8 10 13
14 10 5 -3 9 1 9 8 0 14 30 57 69 100 11 13 18 28 16 34 -2 7 3 12 12 12 9 0
13 6 10 14 -3 7 2 21 11 29 9 9 15 18 13 19 -2 3 16 56 39 118 4 8 5 19 4 23
-1 5 4 5 10 1 9 -5 10 -2 6 10 -4 10 -4 23 0 29 4 7 8 15 9 20 1 4 2 8 4 10 4
4 10 52 12 90 1 20 6 37 10 37 4 0 8 5 8 11 0 5 -3 8 -8 5 -4 -2 -8 9 -8 25
-1 16 3 29 10 29 6 0 5 4 -3 9 -13 8 -13 12 0 27 9 11 9 15 2 10 -7 -4 -13 -2
-13 3 0 6 6 11 13 11 8 0 7 3 -3 10 -8 5 -15 22 -16 37 -3 50 -14 123 -24 147
-6 16 -5 27 3 35 9 10 9 12 -3 9 -8 -2 -15 2 -15 7 -1 6 -5 17 -8 25 -11 27
-28 75 -28 80 0 3 -7 12 -15 21 -8 9 -11 18 -8 22 3 3 -6 17 -21 31 -17 16
-23 26 -14 26 11 1 10 3 -2 10 -9 5 -24 21 -34 36 -9 15 -12 23 -6 20 6 -4 11
-2 11 3 0 6 -4 11 -10 11 -18 0 -48 33 -43 47 3 8 0 13 -8 11 -8 -2 -13 3 -11
11 2 8 -3 11 -12 8 -9 -4 -15 -1 -13 5 1 7 -4 13 -10 14 -7 1 -15 2 -18 3 -3
0 1 11 10 24 14 22 12 37 -7 37 -4 0 -7 -3 -7 -7 4 -27 -1 -35 -16 -23 -8 7
-12 17 -8 23 4 6 0 8 -11 4 -9 -4 -15 -3 -12 2 6 9 -22 26 -37 22 -5 -1 -6 3
-2 9 6 9 -7 14 -27 11 -5 0 -8 4 -8 10 0 5 -6 7 -12 3 -7 -4 -10 -4 -6 1 4 4
2 17 -4 29 -11 20 -11 20 -19 1 -7 -18 -8 -18 -8 -2 -1 11 -6 15 -13 11 -6 -4
-8 -3 -4 4 3 6 2 13 -4 17 -5 3 -10 0 -10 -7 0 -9 -3 -9 -10 2 -5 8 -10 11
-10 5 0 -5 -7 -1 -15 9 -8 11 -18 16 -22 13 -3 -4 -17 3 -30 15 -13 12 -23 18
-23 14 0 -5 -7 -3 -16 5 -13 10 -17 10 -25 -2 -8 -10 -8 -7 -3 11 6 23 6 24
-11 10 -11 -8 -16 -10 -12 -3 8 12 -30 39 -40 29 -3 -3 2 -8 11 -12 9 -3 16
-11 16 -16 0 -7 -5 -6 -13 1 -8 6 -17 7 -21 3 -4 -4 -6 -1 -4 7 2 7 -3 16 -11
19 -8 3 -11 0 -7 -6 4 -7 -1 -9 -16 -6 -13 3 -34 7 -48 9 -14 2 -27 4 -30 5
-3 1 -8 2 -12 1 -12 -2 -10 17 2 24 8 5 7 11 -1 21 -9 12 -15 12 -27 2 -9 -7
-13 -8 -10 -3 4 6 -2 16 -13 23 -10 7 -19 8 -19 3 0 -5 6 -11 13 -14 6 -2 9
-8 5 -12 -4 -4 -19 5 -35 19 -25 23 -29 24 -40 11 -7 -10 -14 -12 -17 -6 -4 6
-14 7 -24 4 -15 -6 -15 -5 -3 11 11 13 16 14 22 5 6 -10 11 -10 23 0 9 8 16
10 16 6 0 -4 6 -2 14 5 8 6 12 19 9 28 -5 14 -4 15 8 6 15 -12 49 -15 49 -4 0
4 6 7 13 7 8 0 14 -11 14 -27 0 -16 -6 -27 -14 -27 -8 0 -11 7 -9 14 3 8 1 11
-4 8 -6 -3 -10 0 -10 7 0 10 -2 10 -9 -1 -5 -8 -14 -10 -22 -5 -11 6 -11 4 0
-10 11 -13 16 -14 24 -4 6 9 7 8 3 -5 -3 -11 -2 -16 4 -12 6 3 10 0 10 -7 0
-9 3 -9 10 2 9 13 10 13 10 0 0 -13 1 -13 10 0 9 13 10 13 11 0 1 -8 1 -19 0
-23 -1 -5 3 -6 8 -2 6 3 15 -4 21 -15 11 -20 30 -19 30 1 0 6 -4 7 -10 4 -5
-3 -10 -2 -10 3 0 13 30 24 31 12 1 -6 3 -14 4 -20 1 -5 3 -15 4 -21 1 -8 5
-8 16 1 8 7 12 16 9 21 -3 5 0 9 5 9 6 0 11 -7 11 -15 0 -20 17 -19 28 2 7 12
4 21 -12 34 -11 10 -16 18 -9 19 6 0 15 -4 18 -10 3 -5 10 -10 16 -10 5 0 1 8
-8 18 -12 13 -22 16 -30 9 -12 -9 -18 2 -14 25 0 4 -7 5 -17 2 -15 -5 -15 -4
-2 6 12 9 12 11 1 8 -18 -5 -27 -28 -11 -28 15 0 59 -51 60 -69 0 -7 -10 -2
-21 13 -12 15 -27 25 -35 22 -16 -6 -29 10 -14 17 6 3 5 4 -2 3 -7 -2 -12 -9
-10 -15 1 -6 -2 -11 -8 -11 -5 0 -10 7 -10 15 0 8 -5 15 -10 15 -7 0 -7 -6 0
-20 7 -13 7 -20 1 -20 -6 0 -15 9 -21 20 -8 15 -7 21 7 28 10 5 24 7 31 5 6
-3 12 2 12 11 0 9 -5 16 -11 16 -5 0 -8 -4 -5 -8 3 -5 -5 -8 -16 -7 -12 1 -24
7 -26 15 -3 7 0 10 7 6 6 -4 14 0 17 9 4 9 10 13 13 8 3 -5 17 -10 31 -11z
m-675 -32 c-6 -9 39 -52 51 -48 17 4 54 -13 48 -23 -3 -5 -10 -7 -15 -3 -5 3
-16 0 -24 -6 -18 -15 -20 0 -2 20 6 8 0 4 -15 -9 -16 -14 -31 -21 -35 -18 -3
4 2 14 13 22 16 13 16 14 2 9 -11 -4 -18 -1 -18 6 0 6 -4 8 -10 5 -5 -3 -10
-1 -10 4 0 6 6 11 13 11 6 1 0 8 -15 16 -30 16 -39 38 -11 27 12 -5 14 -3 8 8
-8 12 -6 12 8 0 9 -7 15 -17 12 -21z m389 -6 c5 -13 4 -14 -7 -6 -8 7 -18 8
-22 4 -5 -4 -5 -1 -1 6 10 17 23 15 30 -4z m221 6 c3 -5 1 -10 -4 -10 -6 0
-11 5 -11 10 0 6 2 10 4 10 3 0 8 -4 11 -10z m-651 -23 c-2 -14 1 -15 12 -6
12 10 13 9 8 -5 -4 -10 0 -18 10 -22 15 -6 15 -10 -3 -40 -17 -28 -18 -34 -5
-45 8 -6 14 -16 14 -22 0 -6 -7 -4 -16 5 -24 23 -27 88 -5 88 14 0 14 2 1 10
-15 9 -33 -7 -24 -22 3 -4 0 -8 -6 -8 -6 0 -9 -4 -5 -9 3 -6 -4 -15 -15 -21
-13 -7 -20 -7 -20 0 0 5 5 10 10 10 6 0 10 5 10 11 0 8 -6 7 -16 -2 -15 -12
-16 -11 -10 9 4 12 3 22 -2 22 -11 0 -9 -40 2 -58 4 -6 14 -8 22 -5 14 5 14 3
3 -15 -13 -21 -14 -21 -32 8 -11 17 -23 30 -28 30 -6 0 -1 -10 10 -22 11 -11
18 -25 14 -31 -3 -5 -11 -1 -17 10 -6 11 -17 18 -25 15 -9 -3 -11 0 -6 8 5 9
4 11 -4 6 -14 -9 -5 -26 15 -26 8 0 14 -5 14 -12 0 -6 -3 -8 -7 -5 -4 4 -20
-5 -35 -20 -25 -23 -31 -25 -39 -13 -9 12 -10 12 -5 -3 4 -13 1 -17 -11 -15
-11 2 -19 -6 -23 -21 -5 -21 -7 -22 -18 -8 -7 9 -22 15 -32 14 -17 -1 -18 -3
-4 -18 10 -11 12 -19 5 -24 -14 -8 -14 -25 0 -25 5 0 7 5 4 10 -4 6 -3 9 2 8
4 -1 18 3 29 10 12 6 24 8 28 5 3 -3 6 -1 6 6 0 7 4 10 9 7 5 -3 14 0 20 8 9
11 9 15 -1 19 -7 3 -2 4 12 2 14 -1 24 -8 23 -14 -4 -13 14 -15 22 -2 3 6 -4
15 -15 21 -11 6 -18 15 -15 21 9 13 25 11 23 -3 -2 -8 6 -13 19 -12 12 1 24
-5 27 -12 3 -8 0 -11 -8 -8 -8 3 -21 -4 -29 -16 -10 -14 -17 -18 -22 -10 -5 8
-11 8 -19 1 -7 -6 -17 -7 -21 -3 -5 4 -5 -2 -1 -12 5 -15 4 -17 -8 -7 -11 10
-17 7 -30 -10 -8 -13 -19 -19 -23 -15 -4 4 -1 11 7 16 8 6 10 10 4 10 -21 0
-34 -23 -21 -39 9 -11 9 -13 0 -8 -6 4 -15 2 -18 -4 -4 -5 -13 -8 -20 -5 -14
5 -38 -16 -30 -27 3 -4 2 -5 -2 -2 -3 3 -15 -2 -25 -12 -10 -9 -18 -12 -18 -7
0 6 -10 10 -22 11 -21 2 -22 1 -5 -11 16 -13 16 -14 1 -20 -10 -4 -20 -3 -23
1 -9 12 -31 14 -31 4 0 -5 7 -11 15 -15 8 -3 15 -11 15 -18 0 -9 -3 -9 -10 2
-5 8 -12 11 -16 7 -4 -3 -1 -15 7 -24 12 -16 12 -17 -2 -6 -12 10 -19 8 -34
-10 -11 -12 -20 -25 -20 -29 0 -3 -4 -10 -9 -15 -5 -5 -6 -3 -2 5 4 7 2 12 -5
12 -7 0 -5 6 6 13 10 8 15 19 11 25 -5 8 -1 10 11 5 15 -6 16 -4 6 9 -15 17
-7 29 13 21 10 -3 12 0 8 10 -3 8 0 18 5 22 6 3 9 10 6 15 -3 5 3 14 14 20 12
6 18 16 15 25 -4 9 0 15 10 15 9 0 16 -5 16 -11 0 -5 -6 -7 -12 -3 -10 6 -10
5 -1 -8 7 -8 9 -19 5 -24 -4 -4 1 -2 10 5 10 7 15 18 12 23 -4 6 4 5 16 -2 12
-7 20 -8 16 -2 -8 14 20 35 35 26 8 -4 9 -3 5 5 -4 6 -3 18 4 26 8 10 8 15 0
20 -6 4 -14 4 -17 1 -4 -3 -1 -6 6 -6 7 0 9 -5 6 -10 -4 -6 -11 -7 -17 -4 -6
4 -9 3 -6 -2 3 -5 0 -15 -8 -22 -13 -12 -18 -8 -15 11 1 5 -3 6 -9 2 -5 -3
-10 -1 -10 5 0 17 52 70 62 64 5 -3 8 -2 7 3 -3 18 1 36 7 30 4 -3 13 1 21 9
8 8 19 11 25 8 7 -5 8 -2 4 5 -5 7 -1 18 10 26 15 11 22 10 44 -2 22 -14 23
-14 7 0 -10 8 -19 18 -20 21 -4 11 43 37 55 30 6 -4 8 -3 4 4 -3 6 13 26 38
45 49 37 92 44 90 14z m746 -37 c0 -5 -4 -10 -10 -10 -5 0 -10 5 -10 10 0 6 5
10 10 10 6 0 10 -4 10 -10z m146 -7 c-2 -9 -12 -17 -24 -18 -36 -3 -24 14 25
34 1 1 0 -7 -1 -16z m-900 -52 c-3 -5 4 -21 16 -36 20 -25 22 -26 34 -10 10
13 16 14 33 5 25 -13 28 -22 4 -13 -10 4 -14 2 -9 -5 3 -6 1 -14 -5 -18 -7 -4
-9 -3 -5 4 3 6 2 13 -4 17 -6 3 -10 -4 -10 -17 0 -13 -4 -18 -8 -13 -12 17
-32 16 -32 -1 0 -9 -6 -14 -12 -11 -7 2 -22 -3 -33 -12 -19 -15 -19 -15 -5 3
14 18 13 19 -2 13 -10 -3 -20 -2 -23 3 -3 5 -13 7 -23 5 -12 -2 -18 4 -19 17
-2 20 -1 20 13 2 11 -15 13 -16 8 -2 -4 13 0 16 21 14 23 -3 44 16 51 47 3 15
4 17 10 17 3 0 3 -4 0 -9z m946 -26 c3 3 5 -2 5 -10 0 -19 -13 -19 -21 0 -3 9
-12 12 -23 8 -15 -6 -16 -4 -6 9 7 8 12 17 10 19 -1 3 5 -3 14 -13 9 -9 19
-15 21 -13z m-792 -4 c0 -6 -4 -13 -10 -16 -5 -3 -10 1 -10 9 0 9 5 16 10 16
6 0 10 -4 10 -9z m991 -58 c13 -16 12 -17 -3 -4 -10 7 -18 15 -18 17 0 8 8 3
21 -13z m43 -11 c3 -5 -1 -9 -9 -9 -8 0 -12 4 -9 9 3 4 7 8 9 8 2 0 6 -4 9 -8z
m-1354 -21 c0 -4 -7 -8 -15 -8 -8 0 -15 6 -15 13 0 8 6 11 15 8 8 -4 15 -9 15
-13z m890 -1 c147 -40 386 -218 434 -324 22 -49 89 -298 102 -380 3 -21 8 -48
11 -60 14 -60 10 -207 -8 -276 -53 -195 -256 -473 -459 -627 -76 -58 -103 -75
-188 -121 -69 -37 -74 -37 -307 -32 -55 1 -120 -3 -145 -9 -65 -15 -115 -5
-190 36 -119 67 -165 100 -210 154 -25 29 -52 60 -60 69 -8 9 -44 49 -80 90
-36 41 -67 77 -70 80 -25 25 -76 101 -100 147 -25 50 -29 72 -33 163 -3 64
-15 148 -31 215 -27 113 -28 168 -4 260 17 66 203 243 376 358 77 50 219 119
317 151 92 31 379 104 439 113 23 3 42 6 44 8 7 6 122 -4 162 -15z m-954 -11
c3 -6 1 -15 -5 -20 -6 -5 -9 -6 -6 -3 3 4 0 13 -6 21 -8 9 -8 13 -1 13 6 0 14
-5 18 -11z m409 -9 c-3 -5 -12 -10 -18 -10 -7 0 -6 4 3 10 19 12 23 12 15 0z
m1055 -20 c0 -5 -2 -10 -4 -10 -3 0 -8 5 -11 10 -3 6 -1 10 4 10 6 0 11 -4 11
-10z m40 2 c0 -5 -7 -9 -15 -9 -8 0 -12 4 -9 9 3 4 9 8 15 8 5 0 9 -4 9 -8z
m-1610 -27 c16 -19 0 -19 -26 0 -16 12 -16 14 -3 15 9 0 22 -7 29 -15z m1681
-42 c13 -16 12 -17 -3 -4 -10 7 -18 15 -18 17 0 8 8 3 21 -13z m33 -9 c3 -8 2
-12 -4 -9 -6 3 -10 10 -10 16 0 14 7 11 14 -7z m30 -9 c-5 -11 -1 -14 12 -9
16 5 16 4 4 -5 -17 -12 -36 1 -26 18 10 16 16 13 10 -4z m46 -35 c0 -5 3 -9 8
-9 4 1 14 1 22 0 11 -1 11 -4 2 -13 -19 -19 -14 -32 6 -17 14 11 15 11 5 -1
-22 -24 -14 -31 12 -14 20 13 25 14 23 3 -2 -8 2 -13 9 -12 6 1 16 -4 22 -11
8 -10 7 -17 -4 -26 -10 -9 -15 -9 -15 -1 0 6 5 11 12 11 18 0 0 13 -23 17 -19
3 -19 2 -5 -19 19 -26 20 -38 5 -38 -5 0 -8 4 -5 9 3 5 -1 11 -9 14 -9 4 -12
1 -8 -9 3 -7 0 -14 -6 -14 -6 0 -10 3 -9 8 2 4 -3 22 -11 40 -10 25 -17 30
-26 22 -10 -8 -15 -8 -21 1 -4 8 -3 9 4 5 7 -4 12 -3 12 3 0 5 -6 12 -12 15
-7 3 -4 4 6 3 10 -1 21 3 23 8 2 6 -12 11 -32 12 -22 0 -32 -3 -28 -10 3 -6 1
-7 -6 -3 -15 10 -3 29 15 22 8 -3 14 -1 14 4 0 6 5 10 10 10 6 0 10 -4 10 -10z
m-87 -35 c-6 -17 -23 -20 -23 -5 0 6 5 10 11 10 5 0 7 5 3 12 -4 7 -3 8 4 4 6
-4 9 -13 5 -21z m234 -88 c-1 -7 4 -11 11 -9 8 1 11 -2 7 -8 -3 -5 -1 -10 4
-10 6 0 10 -4 9 -9 -2 -5 6 -17 17 -26 11 -9 15 -14 9 -11 -13 6 -57 -37 -47
-47 3 -4 2 -7 -3 -7 -5 0 -15 14 -22 30 -9 18 -18 27 -25 23 -7 -4 -6 1 2 10
19 24 33 21 27 -5 -3 -13 -3 -17 0 -10 3 6 9 10 14 7 4 -3 11 2 14 11 3 8 2
12 -4 9 -5 -3 -7 0 -4 8 3 8 1 18 -5 22 -7 3 -8 0 -5 -10 5 -11 2 -14 -10 -9
-11 4 -13 10 -7 18 6 7 6 17 1 26 -10 16 -13 10 -13 -31 0 -9 -7 -21 -17 -27
-13 -8 -17 -7 -17 4 0 7 4 11 7 9 4 -3 8 7 8 21 0 15 5 30 12 34 17 10 40 2
37 -13z m-2119 -22 c-3 -3 -9 2 -12 12 -6 14 -5 15 5 6 7 -7 10 -15 7 -18z
m2202 -134 c0 -5 -6 -11 -13 -14 -8 -3 -14 1 -14 9 0 8 6 14 14 14 7 0 13 -4
13 -9z m-369 -144 c-6 -8 -7 -18 -3 -22 4 -5 1 -5 -6 -1 -10 6 -10 11 -1 22 6
8 14 14 16 14 3 0 0 -6 -6 -13z m369 3 c0 -5 -7 -7 -15 -4 -8 4 -15 8 -15 10
0 2 7 4 15 4 8 0 15 -4 15 -10z m-330 -24 c0 -2 -8 -10 -17 -17 -16 -13 -17
-12 -4 4 13 16 21 21 21 13z m-60 -16 c0 -5 -2 -10 -4 -10 -3 0 -8 5 -11 10
-3 6 -1 10 4 10 6 0 11 -4 11 -10z m396 -62 c4 -7 3 -8 -4 -4 -12 7 -16 -5
-13 -31 2 -15 -15 -17 -24 -3 -3 6 -11 10 -16 10 -6 0 -8 -4 -4 -9 3 -5 1 -12
-4 -15 -14 -9 -24 13 -12 27 6 7 6 18 1 26 -4 8 -6 20 -3 28 3 7 -1 21 -8 30
-8 9 7 2 33 -15 26 -18 50 -37 54 -44z m-319 49 c0 -8 -6 -14 -14 -14 -9 0
-10 4 -2 14 6 7 12 13 14 13 1 0 2 -6 2 -13z m403 -27 c0 -5 -2 -10 -4 -10 -3
0 -8 5 -11 10 -3 6 -1 10 4 10 6 0 11 -4 11 -10z m-444 -20 c0 -12 -4 -16 -9
-11 -5 5 -6 14 -3 20 10 15 12 14 12 -9z m41 -2 c-3 -8 -6 -5 -6 6 -1 11 2 17
5 13 3 -3 4 -12 1 -19z m399 -17 c0 -11 -4 -17 -8 -15 -4 3 -8 -1 -8 -8 0 -9
-3 -9 -10 2 -7 11 -5 19 7 28 9 6 17 12 18 12 0 0 1 -9 1 -19z m-421 -10 c-3
-11 -1 -22 5 -26 6 -3 10 4 11 17 0 13 3 17 6 10 3 -7 2 -20 -1 -29 -6 -15 -8
-15 -22 -2 -8 9 -12 23 -8 32 9 23 17 21 9 -2z m58 -38 c-7 -2 -9 -12 -6 -21
4 -14 3 -15 -6 -2 -9 13 -12 12 -24 -4 -11 -16 -15 -16 -22 -5 -5 8 -5 11 -1
8 4 -4 19 4 33 17 14 13 29 21 32 18 3 -4 1 -9 -6 -11z m-73 -13 c0 -5 -2 -10
-4 -10 -3 0 -8 5 -11 10 -3 6 -1 10 4 10 6 0 11 -4 11 -10z m100 -5 c0 -8 -4
-15 -10 -15 -5 0 -7 7 -4 15 4 8 8 15 10 15 2 0 4 -7 4 -15z m-2215 -15 c-3
-5 -12 -10 -18 -10 -7 0 -6 4 3 10 19 12 23 12 15 0z m2140 -28 c-3 -3 -11 0
-18 7 -9 10 -8 11 6 5 10 -3 15 -9 12 -12z m76 5 c-12 -12 -1 -58 13 -50 6 3
2 -4 -9 -17 -18 -21 -18 -23 -2 -17 15 6 16 4 7 -13 -12 -22 -13 -33 -2 -26
10 6 9 -35 -1 -51 -5 -7 -6 -17 -3 -22 3 -5 -2 -15 -11 -22 -12 -10 -14 -10
-9 -1 4 6 3 12 -3 12 -23 0 -18 -39 5 -43 5 -1 10 -11 11 -22 3 -18 2 -18 -8
-2 -12 21 -26 22 -26 2 0 -8 4 -15 9 -15 4 0 8 -5 8 -11 0 -8 -5 -8 -15 1 -15
13 -21 2 -7 -16 4 -5 0 -2 -9 8 -19 19 -35 12 -18 -8 13 -16 2 -37 -13 -28 -7
5 -9 -2 -6 -18 3 -15 0 -25 -7 -25 -9 0 -10 9 -5 26 4 14 12 25 19 24 6 -2 11
1 11 6 0 14 -26 32 -35 23 -4 -4 -2 3 4 16 7 13 18 21 26 19 16 -7 35 12 35
33 -1 12 -2 12 -11 -3 -8 -14 -14 -15 -32 -5 -12 6 -23 10 -25 9 -2 -2 -6 0
-9 3 -7 7 34 -1 47 -9 6 -3 10 -2 10 3 0 6 -8 13 -17 16 -12 5 -14 9 -5 18 9
9 8 16 -5 31 -14 15 -14 18 -3 15 8 -2 14 3 13 10 -2 6 2 12 7 12 14 0 13 -13
-2 -28 -9 -9 -9 -12 0 -12 6 0 16 8 21 18 14 27 -5 45 -33 30 -18 -9 -17 -7 4
13 13 13 28 23 32 22 5 -2 8 4 8 13 0 8 -4 12 -10 9 -15 -10 -12 -2 15 35 14
18 23 36 20 39 -7 6 -39 -29 -48 -53 -4 -10 -10 -17 -13 -14 -8 8 18 58 30 58
6 0 5 4 -3 9 -9 6 -1 8 23 8 20 -1 32 -5 27 -10z m209 -7 c0 -5 -7 -7 -15 -4
-8 4 -12 10 -9 15 6 11 24 2 24 -11z m-2423 -70 c1 -19 4 -44 6 -55 3 -12 -4
-27 -17 -38 l-21 -18 23 11 c12 6 22 8 22 5 0 -12 -6 -20 -13 -17 -5 1 -6 -2
-2 -8 3 -6 11 -7 17 -4 6 4 8 1 6 -7 -3 -8 1 -22 10 -31 11 -13 12 -21 4 -31
-6 -7 -7 -18 -2 -26 4 -8 6 -20 3 -28 -3 -7 -1 -13 5 -13 9 0 9 -20 2 -40 -1
-3 -2 -9 -1 -13 1 -5 -3 -6 -9 -2 -6 4 -8 14 -6 23 3 10 2 23 -3 30 -6 11 -11
10 -25 -3 -9 -9 -16 -14 -16 -10 0 4 -7 0 -15 -9 -25 -25 -17 -28 16 -6 16 12
33 19 36 16 8 -8 -29 -36 -39 -30 -4 3 -5 -2 -1 -11 4 -12 8 -13 13 -5 5 9 9
9 14 1 4 -6 2 -11 -4 -11 -6 0 -8 -5 -4 -11 3 -6 9 -7 13 -3 3 5 15 10 26 12
15 2 12 -2 -9 -14 -21 -12 -25 -19 -17 -27 6 -6 11 -16 11 -21 0 -6 -7 0 -16
12 -8 12 -18 20 -22 18 -4 -2 -13 3 -21 11 -12 13 -11 14 8 8 20 -6 21 -5 10
13 -7 12 -16 19 -20 16 -15 -9 -20 17 -7 33 11 15 11 16 -5 10 -10 -4 -16 -3
-12 2 3 5 0 13 -6 16 -5 4 -8 14 -5 22 3 8 3 20 -1 26 -12 20 -12 37 0 37 9 0
9 2 0 8 -9 6 -12 69 -3 80 2 1 3 17 4 35 1 21 7 31 15 29 8 -2 11 3 8 11 -3 8
1 14 9 14 8 0 14 -4 14 -7 0 -13 -27 -30 -35 -22 -4 4 -3 -3 4 -15 8 -16 8
-23 -2 -26 -6 -3 2 -4 18 -3 30 2 32 6 19 40 -4 12 -4 17 2 13 5 -3 10 3 10
13 0 10 -3 17 -6 16 -3 -2 -14 0 -25 5 -17 6 -17 8 -2 8 9 1 16 4 16 9 -1 4
-1 14 0 22 3 27 25 -22 28 -60z m2124 53 c13 -16 12 -17 -3 -4 -10 7 -18 15
-18 17 0 8 8 3 21 -13z m14 -61 c-3 -3 -11 0 -18 7 -9 10 -8 11 6 5 10 -3 15
-9 12 -12z m230 8 c-6 -9 8 -14 28 -11 9 1 9 -3 1 -23 -3 -9 -10 -16 -16 -16
-5 0 -6 5 -3 10 5 9 -7 14 -27 11 -4 0 -6 8 -5 19 1 11 7 20 15 20 7 0 10 -4
7 -10z m-240 -28 c-3 -3 -11 0 -18 7 -9 10 -8 11 6 5 10 -3 15 -9 12 -12z
m-2151 -18 c4 -10 1 -14 -6 -12 -15 5 -23 28 -10 28 5 0 13 -7 16 -16z m2376
-29 c5 3 11 1 15 -5 3 -5 -1 -10 -9 -10 -9 0 -19 -1 -23 -2 -3 -2 -8 8 -9 22
-3 21 -2 23 7 7 6 -9 14 -15 19 -12z m15 -93 c-4 -4 -10 -1 -12 6 -4 10 -8 10
-21 0 -14 -12 -14 -11 -2 8 12 19 15 20 28 7 8 -7 11 -17 7 -21z m10 -22 c-9
-10 -22 -18 -29 -17 -6 1 -11 -6 -11 -15 0 -9 -4 -20 -8 -24 -4 -4 -2 -13 4
-20 13 -15 -6 -14 -36 3 l-20 12 20 18 c60 55 120 87 80 43z m-2321 -39 c-1
-15 3 -20 13 -17 8 3 11 2 8 -3 -3 -5 -1 -12 5 -16 5 -3 10 -11 10 -17 0 -6
-7 -5 -17 3 -10 7 -15 9 -11 5 4 -5 3 -15 -3 -23 -9 -9 -8 -13 0 -13 6 0 11 4
11 9 0 4 10 8 23 7 15 -1 21 -7 19 -19 -2 -10 3 -17 13 -17 8 0 15 -7 15 -16
0 -9 5 -12 12 -8 6 4 8 3 4 -4 -3 -6 -2 -13 4 -17 6 -4 4 -15 -6 -30 -9 -13
-15 -27 -14 -32 1 -4 -4 -9 -11 -12 -6 -2 -9 1 -5 7 4 7 -1 9 -14 7 -11 -2
-23 1 -26 7 -4 7 -2 8 4 4 7 -4 12 -3 12 3 0 6 6 8 13 5 8 -3 20 3 27 13 12
15 12 16 0 6 -17 -15 -30 -17 -30 -4 0 5 9 13 20 16 11 4 17 11 14 17 -4 6 -9
5 -15 -3 -4 -7 -11 -10 -15 -6 -4 3 -1 13 6 22 7 8 9 15 5 15 -4 0 -15 -10
-26 -22 -19 -23 -26 -15 -10 11 10 16 4 41 -11 41 -5 0 -6 -5 -2 -12 5 -7 3
-8 -5 -3 -10 6 -11 3 -2 -14 10 -17 9 -22 -4 -27 -23 -9 -8 -23 20 -18 18 3
23 1 19 -10 -6 -16 -26 -15 -46 2 -8 6 -19 8 -23 4 -5 -4 -5 -2 -2 5 4 6 1 13
-5 15 -8 3 -4 9 10 17 18 10 20 15 12 31 -6 11 -6 21 -1 24 9 6 9 23 0 41 -3
6 -5 17 -4 25 0 8 -4 19 -10 23 -6 5 -4 7 5 4 8 -2 14 -14 14 -26z m2027 -24
c-10 -9 -11 -8 -5 6 3 10 9 15 12 12 3 -3 0 -11 -7 -18z m-11 -47 c0 -5 -5
-10 -11 -10 -5 0 -7 5 -4 10 3 6 8 10 11 10 2 0 4 -4 4 -10z m-2049 -17 c13
-16 12 -17 -3 -4 -10 7 -18 15 -18 17 0 8 8 3 21 -13z m2299 2 c5 3 12 0 16
-7 4 -7 4 -10 -1 -6 -4 4 -14 3 -21 -3 -19 -16 -38 -1 -22 18 8 10 14 11 16 4
2 -6 8 -9 12 -6z m-239 -18 c-10 -9 -11 -8 -5 6 3 10 9 15 12 12 3 -3 0 -11
-7 -18z m-1 -23 c0 -8 -19 -13 -24 -6 -3 5 1 9 9 9 8 0 15 -2 15 -3z m-2085
-34 c3 -6 -1 -7 -9 -4 -18 7 -21 14 -7 14 6 0 13 -4 16 -10z m35 -32 c0 -4 -5
-8 -11 -8 -5 0 -7 -5 -3 -12 4 -7 3 -8 -5 -4 -6 4 -9 11 -6 16 3 4 -1 10 -7
13 -7 3 -3 4 10 4 12 -1 22 -5 22 -9z m2074 0 c-3 -4 -11 -5 -19 -1 -21 7 -19
12 4 10 11 0 18 -5 15 -9z m-1934 -6 c0 -4 -6 -14 -12 -21 -11 -11 -10 -13 4
-8 12 4 15 2 11 -9 -3 -8 0 -21 7 -29 9 -10 9 -15 1 -15 -6 0 -11 -5 -11 -11
0 -6 7 -8 16 -5 8 3 12 2 9 -3 -3 -5 -1 -12 5 -16 6 -4 8 -10 5 -15 -3 -4 2
-13 10 -20 12 -10 13 -16 3 -28 -11 -13 -10 -15 4 -9 10 3 20 1 24 -5 4 -7 3
-8 -4 -4 -19 12 -14 -6 11 -33 12 -14 15 -20 6 -13 -9 6 -19 8 -23 4 -4 -4 -6
0 -4 8 2 8 -3 14 -9 13 -7 -2 -12 1 -10 6 1 5 -9 18 -22 30 -14 12 -18 21 -11
21 7 0 11 3 8 6 -4 3 -10 6 -15 6 -16 0 -32 20 -26 34 3 9 0 14 -8 12 -8 -2
-14 4 -15 12 -2 27 -16 50 -27 43 -6 -3 -7 -1 -3 5 4 7 0 12 -11 13 -16 0 -16
1 2 8 25 10 46 -5 39 -27 -3 -9 3 -3 12 13 10 17 17 33 16 38 -1 4 3 7 8 7 6
0 10 -4 10 -8z m-134 -31 c-3 -5 1 -12 9 -15 8 -3 15 -9 14 -13 -4 -22 2 -34
14 -27 7 5 6 0 -3 -11 -14 -17 -13 -18 3 -12 9 3 17 2 17 -4 0 -6 -8 -9 -17
-7 -9 2 -16 6 -14 11 3 12 -32 67 -44 67 -5 0 -3 5 5 10 19 12 23 12 16 1z
m2028 0 c3 -4 -1 -16 -8 -26 -10 -14 -15 -15 -21 -5 -5 8 -4 11 2 7 6 -4 13 0
16 7 3 8 1 17 -6 20 -9 3 -9 5 0 5 6 1 14 -3 17 -8z m-1830 -37 c3 -8 2 -12
-4 -9 -6 3 -10 10 -10 16 0 14 7 11 14 -7z m1793 -30 c-4 -15 -5 -14 -6 4 -1
15 -5 21 -13 16 -7 -5 -8 -3 -3 5 10 18 28 -2 22 -25z m-1776 -17 c-10 -9 -11
-8 -5 6 3 10 9 15 12 12 3 -3 0 -11 -7 -18z m28 -14 c-2 -17 14 -52 21 -48 5
3 12 0 16 -7 4 -7 4 -10 -1 -6 -4 4 -14 0 -22 -10 -8 -9 -12 -12 -9 -5 8 15
-14 64 -25 57 -5 -3 -6 2 -3 10 6 16 25 23 23 9z m1726 -3 c-3 -5 -12 -10 -18
-10 -7 0 -6 4 3 10 19 12 23 12 15 0z m-1903 -18 c-3 -10 -1 -13 6 -8 8 5 10
1 5 -11 -3 -10 -3 -15 1 -11 8 7 50 -26 52 -40 2 -21 17 -41 27 -35 6 4 7 1 3
-6 -5 -8 0 -14 13 -18 12 -3 21 -13 21 -25 0 -14 5 -18 15 -14 9 3 19 -3 25
-15 6 -11 15 -17 20 -14 5 3 16 -5 25 -17 8 -13 21 -23 28 -23 6 -1 11 -6 10
-12 -2 -7 6 -14 16 -18 11 -3 22 -13 25 -21 3 -9 11 -12 17 -8 8 5 9 3 4 -6
-6 -10 -4 -12 9 -7 10 4 15 3 11 -3 -7 -12 7 -13 21 -2 5 4 2 0 -8 -9 -22 -21
-10 -34 13 -14 15 15 18 14 37 -9 10 -14 23 -22 27 -18 5 4 5 2 1 -5 -3 -6 -2
-14 4 -18 6 -4 5 -13 -2 -25 -7 -10 -16 -16 -20 -14 -5 3 -6 10 -3 15 4 5 3
14 -1 20 -5 8 -8 8 -14 0 -3 -7 -14 -9 -24 -5 -14 5 -14 9 -4 22 11 13 11 14
-1 7 -9 -5 -12 -4 -8 2 3 5 0 10 -8 10 -11 0 -12 -4 -4 -13 8 -10 6 -13 -9
-11 -13 1 -18 6 -14 16 3 9 1 12 -7 7 -6 -4 -18 -2 -27 4 -11 10 -12 16 -2 28
11 13 10 14 -7 9 -20 -6 -48 4 -46 17 3 20 0 26 -9 21 -6 -3 -13 1 -16 9 -3 9
-11 13 -18 9 -6 -3 -8 -3 -4 2 4 4 -6 18 -23 32 -16 14 -27 29 -23 34 3 5 -2
12 -11 15 -9 4 -14 13 -10 22 5 12 3 13 -10 2 -9 -7 -15 -9 -14 -4 4 21 -2 34
-13 32 -8 -2 -12 5 -10 15 2 10 -3 16 -10 15 -8 -2 -13 6 -12 20 1 21 -10 30
-19 15 -2 -5 -3 -3 -1 3 1 6 -6 15 -16 21 -21 14 -32 50 -15 50 8 0 11 -7 7
-15z m213 -62 c-3 -5 -2 -10 4 -10 5 0 11 3 14 8 2 4 2 1 0 -7 -2 -8 2 -11 11
-8 10 4 13 1 10 -8 -3 -8 3 -16 16 -20 15 -5 19 -12 15 -26 -4 -13 -2 -18 7
-16 7 2 10 2 6 0 -9 -5 25 -41 34 -36 4 2 10 -2 14 -9 4 -7 4 -10 -1 -6 -4 4
-15 2 -23 -5 -13 -9 -14 -9 -8 1 4 7 2 12 -4 12 -6 0 -8 5 -4 12 5 8 0 9 -14
6 -12 -4 -20 -2 -17 2 7 12 -6 41 -15 35 -5 -3 -12 0 -16 6 -4 7 -3 9 4 5 6
-3 13 -2 17 4 3 5 1 11 -4 11 -6 1 -15 2 -21 3 -5 0 -10 6 -11 11 0 6 -7 14
-15 18 -13 7 -11 27 2 27 3 0 2 -4 -1 -10z m1578 -61 c-8 -8 -13 -7 -18 2 -5
8 -4 10 3 5 7 -4 12 -2 12 5 0 7 3 9 7 6 4 -4 2 -12 -4 -18z m467 -34 c-7 -9
-15 -13 -17 -11 -7 7 7 26 19 26 6 0 6 -6 -2 -15z m-33 -20 c0 -11 -4 -12 -14
-4 -7 6 -13 15 -13 20 0 5 6 6 13 3 8 -3 14 -11 14 -19z m-600 -31 c-3 -3 -12
-4 -19 -1 -8 3 -5 6 6 6 11 1 17 -2 13 -5z m-1277 -19 c0 -8 -2 -15 -4 -15 -2
0 -6 7 -10 15 -3 8 -1 15 4 15 6 0 10 -7 10 -15z m1246 -7 c4 -7 4 -10 -1 -6
-4 4 -15 2 -24 -5 -14 -11 -14 -10 -2 6 16 20 18 21 27 5z m104 -2 c0 -2 -8
-10 -17 -17 -16 -13 -17 -12 -4 4 13 16 21 21 21 13z m-102 -40 c-2 -3 6 -12
17 -21 15 -13 16 -15 3 -11 -16 5 -47 -20 -47 -39 0 -5 -4 -11 -10 -13 -7 -2
-9 4 -5 15 5 15 4 15 -5 3 -9 -13 -11 -13 -11 0 0 9 -3 11 -8 5 -4 -5 -16 -11
-27 -12 -11 -1 -14 0 -7 3 6 3 10 10 7 15 -4 5 0 6 8 3 8 -3 18 -1 21 5 4 6
14 8 24 5 14 -5 14 -3 -2 10 -11 9 -15 16 -9 16 7 0 15 -4 18 -10 3 -5 11 -10
17 -10 6 0 6 6 -2 15 -7 9 -10 18 -6 22 3 3 6 1 6 -6 0 -7 4 -10 10 -6 5 3 8
11 6 18 -1 7 -1 9 1 5 3 -4 3 -10 1 -12z m500 -63 c2 -7 -1 -13 -8 -13 -6 0
-8 5 -5 10 3 6 1 10 -4 10 -6 0 -11 -4 -11 -10 0 -14 -17 -12 -23 3 -3 9 4 13
21 12 14 0 27 -6 30 -12z m38 -4 c3 -6 2 -15 -4 -21 -6 -6 -12 -6 -17 3 -5 8
-4 10 3 5 7 -4 12 -3 12 3 0 5 -6 12 -12 14 -10 4 -10 6 -1 6 6 1 15 -4 19
-10z m-618 -31 c0 -36 7 -56 27 -78 10 -11 13 -20 7 -20 -6 0 -9 -9 -7 -20 2
-11 0 -22 -6 -25 -8 -6 -13 9 -10 29 1 4 -4 15 -11 24 -11 14 -10 15 7 9 17
-6 17 -4 -2 9 -23 17 -33 41 -11 28 7 -4 8 -3 4 4 -4 6 -13 9 -20 6 -19 -7
-15 34 4 46 8 5 16 10 16 10 1 0 2 -10 2 -22z m82 -60 c0 -7 -12 1 -25 19 -16
20 -31 30 -40 26 -17 -6 -18 -2 -8 23 5 15 11 12 40 -19 18 -20 33 -42 33 -49z
m492 38 c7 4 8 2 4 -5 -11 -17 -26 -3 -25 22 2 22 2 22 6 -1 3 -13 9 -19 15
-16z m19 17 c13 -16 12 -17 -3 -4 -17 13 -22 21 -14 21 2 0 10 -8 17 -17z
m-804 -18 c0 -8 -4 -12 -9 -9 -5 3 -6 10 -3 15 9 13 12 11 12 -6z m-925 -8 c9
-1 15 -4 12 -8 -2 -4 3 -12 11 -19 12 -10 16 -9 21 4 9 23 19 20 35 -11 8 -16
22 -35 32 -44 17 -16 17 -17 -6 -15 -17 1 -23 6 -19 15 3 8 1 12 -5 8 -6 -4
-22 2 -35 13 -14 11 -28 16 -32 13 -3 -3 -6 1 -6 11 0 9 -4 14 -10 11 -5 -3
-10 -2 -10 4 0 5 -12 14 -27 20 -24 10 -25 10 -3 5 14 -3 33 -6 42 -7z m902
-3 c3 -8 2 -12 -4 -9 -6 3 -10 10 -10 16 0 14 7 11 14 -7z m193 9 c-4 -3 3
-17 15 -30 12 -13 18 -23 14 -23 -5 0 -4 -6 3 -13 6 -8 9 -23 7 -34 -5 -23 38
-51 49 -33 4 6 12 10 18 10 7 -1 1 -10 -12 -21 -13 -11 -31 -17 -39 -14 -8 3
-24 -3 -34 -12 -11 -10 -23 -17 -26 -15 -3 1 -7 -4 -8 -13 -1 -8 5 -15 13 -15
13 0 13 -3 3 -15 -7 -8 -16 -12 -21 -9 -5 3 -9 -1 -9 -8 0 -10 -3 -9 -9 2 -6
8 -8 17 -5 21 6 10 -14 22 -42 25 -16 1 -25 -4 -30 -18 -5 -18 -7 -18 -18 -2
-10 13 -15 14 -21 4 -6 -9 -4 -11 6 -5 11 6 11 5 2 -5 -6 -7 -17 -9 -24 -5 -9
6 -8 11 5 21 10 7 16 20 14 31 -2 10 2 17 9 16 7 -2 17 6 23 18 8 13 17 18 30
14 15 -5 18 -1 16 20 -2 14 2 29 9 33 7 4 17 17 24 30 7 12 17 20 23 16 6 -4
8 1 3 15 -4 14 -2 21 6 21 7 0 9 -3 6 -7z m-944 -30 c-3 -7 -6 -13 -8 -13 -2
0 -5 6 -8 13 -3 8 1 14 8 14 7 0 11 -6 8 -14z m733 5 c3 -4 -2 -5 -13 -4 -10
2 -25 -2 -33 -8 -13 -9 -13 -9 -2 6 12 16 35 18 48 6z m804 2 c0 -5 -2 -10 -4
-10 -3 0 -8 5 -11 10 -3 6 -1 10 4 10 6 0 11 -4 11 -10z m-1735 -20 c3 -6 -1
-7 -9 -4 -18 7 -21 14 -7 14 6 0 13 -4 16 -10z m212 -9 c0 -11 -5 -18 -9 -15
-4 3 -5 11 -1 19 7 21 12 19 10 -4z m1503 9 c0 -5 -2 -10 -4 -10 -3 0 -8 5
-11 10 -3 6 -1 10 4 10 6 0 11 -4 11 -10z m-1115 -18 c-3 -3 -11 0 -18 7 -9
10 -8 11 6 5 10 -3 15 -9 12 -12z m312 3 c0 -8 -4 -12 -9 -9 -5 3 -6 10 -3 15
9 13 12 11 12 -6z m778 3 c5 4 5 1 1 -5 -10 -18 -23 -16 -30 3 -5 13 -4 14 7
6 8 -7 18 -8 22 -4z m-1431 -10 c-3 -4 -11 -5 -19 -1 -21 7 -19 12 4 10 11 0
18 -5 15 -9z m390 3 c-9 -9 -34 -9 -34 -1 0 5 9 8 20 7 10 -1 17 -3 14 -6z
m-417 -18 c-4 -3 1 -12 11 -20 16 -12 16 -13 -2 -6 -14 5 -17 3 -11 -7 5 -8 4
-11 -3 -7 -5 4 -9 15 -7 25 5 23 4 22 12 22 3 0 3 -3 0 -7z m58 -3 c4 -6 -1
-7 -11 -3 -13 5 -15 3 -9 -7 5 -9 4 -11 -4 -6 -6 4 -9 12 -6 17 8 12 22 12 30
-1z m1365 0 c0 -5 -4 -10 -10 -10 -5 0 -10 5 -10 10 0 6 5 10 10 10 6 0 10 -4
10 -10z m-1325 -10 c3 -6 -1 -7 -9 -4 -18 7 -21 14 -7 14 6 0 13 -4 16 -10z
m1172 -15 c0 -8 -4 -12 -9 -9 -5 3 -6 10 -3 15 9 13 12 11 12 -6z m117 3 c-3
-4 -9 -8 -15 -8 -5 0 -9 4 -9 8 0 5 7 9 15 9 8 0 12 -4 9 -9z m-1523 -21 c-6
-8 -9 -17 -6 -21 3 -3 -1 -1 -7 4 -10 9 -10 13 2 20 21 13 24 12 11 -3z m179
3 c0 -5 -5 -10 -11 -10 -5 0 -7 5 -4 10 3 6 8 10 11 10 2 0 4 -4 4 -10z m60
-6 c-6 -6 -7 -14 -3 -17 3 -4 3 -7 0 -7 -3 0 -11 8 -16 18 -7 14 -6 18 9 18
13 0 16 -4 10 -12z m60 12 c0 -3 -4 -8 -10 -11 -5 -3 -10 -1 -10 4 0 6 5 11
10 11 6 0 10 -2 10 -4z m1199 -19 c0 -9 -2 -8 -6 1 -2 6 -9 10 -13 7 -13 -8 0
-36 14 -28 6 3 7 2 3 -2 -4 -5 -14 -10 -22 -11 -16 -2 -17 37 -1 48 13 8 26 0
25 -15z m34 3 c-3 -12 -8 -19 -11 -16 -5 6 5 36 12 36 2 0 2 -9 -1 -20z m-103
-5 c-7 -9 -10 -19 -6 -22 4 -4 11 -1 15 6 6 9 8 4 8 -16 -2 -26 -5 -29 -29
-27 -15 2 -30 -1 -33 -6 -6 -10 13 -14 45 -11 13 2 13 1 0 -8 -8 -6 -24 -8
-35 -4 -17 5 -18 4 -8 -9 7 -8 10 -18 6 -21 -8 -9 -34 13 -28 24 7 11 -33 32
-45 24 -6 -4 -8 -10 -5 -15 3 -4 -10 -6 -27 -4 -26 3 -28 2 -13 -5 11 -5 30
-20 42 -34 18 -21 19 -26 6 -31 -8 -3 -19 -4 -23 -1 -5 3 -11 -4 -15 -15 -3
-11 -11 -20 -16 -20 -14 0 -11 9 11 37 11 14 20 21 20 14 0 -6 6 -11 13 -11 6
0 -2 14 -20 30 -19 17 -40 27 -52 25 -14 -3 -19 2 -18 15 1 10 4 17 8 14 4 -2
10 2 13 8 3 7 3 2 -1 -12 -5 -22 -4 -23 10 -11 9 7 24 11 32 7 9 -3 15 0 15
10 0 8 5 12 10 9 6 -3 10 -1 10 6 0 10 3 10 12 1 14 -14 29 -16 26 -3 -2 5 0
8 4 8 4 -1 14 7 23 18 15 18 16 18 11 2 -4 -12 -2 -17 6 -14 7 2 12 10 10 17
-3 12 15 40 25 40 3 0 0 -7 -7 -15z m-1375 -7 c5 4 5 2 1 -5 -4 -7 2 -13 16
-16 21 -4 21 -4 2 -6 -11 0 -29 9 -40 21 -12 14 -13 18 -3 10 9 -6 20 -8 24
-4z m159 -4 c3 -8 2 -12 -4 -9 -6 3 -10 10 -10 16 0 14 7 11 14 -7z m-183 -21
c12 -16 12 -17 -2 -6 -9 7 -20 9 -24 5 -5 -4 -5 -1 -1 6 9 16 11 15 27 -5z
m1309 7 c0 -5 -5 -10 -11 -10 -5 0 -7 5 -4 10 3 6 8 10 11 10 2 0 4 -4 4 -10z
m-850 -29 c-12 -23 -41 -36 -33 -16 3 8 9 12 14 9 8 -5 13 10 10 29 -1 5 3 6
9 2 7 -4 7 -12 0 -24z m-375 9 c-3 -5 -1 -10 6 -10 7 0 10 -3 6 -6 -9 -9 -28
6 -22 17 4 5 8 9 11 9 3 0 2 -4 -1 -10z m334 -4 c-8 -6 -15 -27 -16 -46 -1
-30 0 -33 11 -18 10 14 15 15 26 5 10 -10 12 -8 7 6 -4 10 -3 15 2 12 5 -3 13
4 16 15 5 16 10 18 20 10 7 -6 19 -8 28 -4 24 9 30 -14 12 -52 -18 -38 -26
-44 -18 -14 3 12 0 20 -6 20 -7 0 -10 -4 -7 -9 7 -11 -13 -9 -31 2 -16 10 -17
-5 -2 -20 8 -8 8 -13 0 -18 -6 -3 -11 -3 -10 2 3 20 -2 25 -16 13 -9 -8 -15
-8 -15 -2 0 6 6 12 13 15 6 2 9 8 5 12 -5 5 -16 1 -26 -9 -18 -16 -19 -14 -17
31 3 62 2 60 21 60 14 0 14 -2 3 -11z m151 6 c0 -4 -9 -8 -20 -9 -11 -1 -20 2
-20 5 0 4 9 8 20 9 11 1 20 -2 20 -5z m-511 -16 c8 -10 9 -16 1 -21 -6 -4 -9
-1 -8 7 2 8 -5 12 -17 10 -16 -2 -17 -1 -5 7 19 13 15 14 29 -3z m211 -6 c0
-5 -2 -10 -4 -10 -3 0 -8 5 -11 10 -3 6 -1 10 4 10 6 0 11 -4 11 -10z m355 -3
c3 -4 2 -5 -2 -2 -3 3 -12 0 -20 -6 -10 -9 -13 -8 -13 0 0 7 -5 9 -12 5 -6 -4
-8 -3 -5 3 7 11 44 11 52 0z m-35 -34 c0 -1 -5 -5 -12 -9 -7 -5 -8 -3 -3 6 6
9 4 12 -6 8 -10 -4 -15 1 -16 12 -2 17 0 18 18 2 10 -9 19 -17 19 -19z m-454
15 c-9 -5 -23 -5 -32 0 -12 6 -7 9 16 9 23 0 28 -3 16 -9z m199 2 c3 -6 -1 -7
-9 -4 -18 7 -21 14 -7 14 6 0 13 -4 16 -10z m991 -8 c-3 -2 -1 -12 4 -21 13
-25 -24 -25 -46 0 -14 16 -15 20 -4 17 8 -2 14 2 13 8 -1 7 6 10 18 7 11 -3
18 -8 15 -11z m-1176 -12 c0 -5 -5 -10 -11 -10 -5 0 -7 5 -4 10 3 6 8 10 11
10 2 0 4 -4 4 -10z m227 4 c-3 -3 -12 -4 -19 -1 -8 3 -5 6 6 6 11 1 17 -2 13
-5z m876 -39 c-5 -13 -23 -22 -23 -11 0 15 14 35 21 31 4 -3 6 -12 2 -20z
m-603 -100 c-7 -9 -15 -13 -17 -11 -7 7 7 26 19 26 6 0 6 -6 -2 -15z m80 0
c-7 -8 -14 -15 -15 -15 -2 0 -5 7 -9 15 -4 10 1 15 16 15 17 0 18 -2 8 -15z
m40 -40 c0 -8 -2 -15 -4 -15 -2 0 -6 7 -10 15 -3 8 -1 15 4 15 6 0 10 -7 10
-15z"/>
<path d="M1514 2969 c-8 -14 14 -19 25 -6 8 10 7 14 -5 14 -8 0 -17 -4 -20 -8z"/>
<path d="M1624 2872 c2 -12 13 -17 38 -17 50 -1 45 28 -4 31 -29 2 -36 -1 -34
-14z m66 4 c0 -2 -7 -7 -16 -10 -8 -3 -12 -2 -9 4 6 10 25 14 25 6z"/>
<path d="M1427 2864 c-24 -13 -31 -13 -45 -2 -15 12 -15 11 0 -11 9 -13 15
-28 14 -35 -2 -6 -1 -8 1 -3 3 4 9 5 14 1 5 -3 12 2 15 10 3 9 10 16 16 16 5
0 6 -4 3 -10 -13 -22 -13 -49 1 -54 11 -4 12 -2 5 13 -13 23 15 69 32 52 16
-16 30 -13 23 5 -5 14 -4 15 9 4 8 -7 15 -8 15 -2 0 14 -34 25 -38 12 -3 -8
-10 -6 -21 4 -14 13 -19 13 -44 0z m37 -15 c-3 -5 -10 -6 -16 -3 -6 4 -17 -1
-24 -10 -7 -10 -15 -13 -18 -7 -4 5 6 17 21 25 29 14 48 12 37 -5z"/>
<path d="M1464 2819 c-4 -7 -3 -9 4 -5 5 3 13 0 15 -6 4 -9 6 -10 6 -1 1 17
-16 25 -25 12z"/>
<path d="M1511 2804 c0 -11 3 -14 6 -6 3 7 2 16 -1 19 -3 4 -6 -2 -5 -13z"/>
<path d="M1550 2799 c0 -5 5 -7 10 -4 6 3 10 8 10 11 0 2 -4 4 -10 4 -5 0 -10
-5 -10 -11z"/>
<path d="M1371 2793 c-1 -17 16 -25 25 -12 4 7 3 9 -4 5 -5 -3 -13 0 -15 6 -4
9 -6 10 -6 1z"/>
<path d="M1590 2790 c0 -5 5 -10 10 -10 6 0 10 5 10 10 0 6 -4 10 -10 10 -5 0
-10 -4 -10 -10z"/>
<path d="M1350 2785 c0 -5 8 -20 18 -31 13 -17 22 -20 37 -13 l20 9 -20 -3
c-12 -2 -27 7 -37 23 -10 14 -18 21 -18 15z"/>
<path d="M1488 2773 c-22 -5 -24 -20 -3 -20 8 0 16 6 19 14 3 7 4 12 3 12 -1
-1 -10 -3 -19 -6z"/>
<path d="M1638 2763 c7 -3 16 -2 19 1 4 3 -2 6 -13 5 -11 0 -14 -3 -6 -6z"/>
<path d="M1708 2763 c7 -3 16 -2 19 1 4 3 -2 6 -13 5 -11 0 -14 -3 -6 -6z"/>
<path d="M1354 2737 c5 -15 2 -17 -17 -12 -20 5 -20 5 -4 -6 23 -14 40 0 26
21 -9 12 -10 12 -5 -3z"/>
<path d="M1436 2738 c3 -5 10 -6 15 -3 13 9 11 12 -6 12 -8 0 -12 -4 -9 -9z"/>
<path d="M1250 2721 c0 -17 19 -22 37 -11 15 9 14 10 -6 4 -16 -4 -21 -3 -17
5 4 6 2 11 -3 11 -6 0 -11 -4 -11 -9z"/>
<path d="M1726 2821 c-4 -5 -2 -12 3 -15 5 -4 12 -2 15 3 4 5 2 12 -3 15 -5 4
-12 2 -15 -3z"/>
<path d="M1995 2813 c24 -23 62 -28 43 -6 -6 7 -13 11 -16 9 -2 -3 -14 0 -26
6 l-21 10 20 -19z"/>
<path d="M1835 2761 c-3 -6 -1 -11 5 -11 6 0 9 -4 6 -8 -3 -5 1 -9 9 -9 12 0
12 3 3 16 -7 9 -13 17 -14 19 -1 2 -5 -1 -9 -7z"/>
<path d="M1986 2745 c-2 -7 2 -19 10 -25 8 -7 14 -9 14 -4 0 4 10 -2 23 -14
l22 -21 1 25 c1 13 -2 24 -8 24 -5 0 -6 -4 -3 -10 12 -19 -8 -10 -30 15 -18
18 -25 21 -29 10z"/>
<path d="M1886 2741 c-3 -5 1 -11 9 -14 9 -4 12 -1 8 9 -6 16 -10 17 -17 5z"/>
<path d="M2169 2642 c-7 -9 -9 -14 -4 -9 4 4 17 0 27 -10 10 -9 18 -13 18 -8
0 4 7 2 15 -5 18 -15 34 -6 31 18 -2 11 -12 17 -27 17 -13 0 -29 4 -35 8 -7 4
-18 -1 -25 -11z m54 -7 c9 2 15 -1 11 -6 -3 -5 0 -9 7 -9 7 0 9 -3 6 -6 -4 -4
-13 -2 -20 4 -8 7 -16 10 -19 7 -3 -3 -11 3 -19 12 -12 16 -12 17 1 7 8 -6 23
-10 33 -9z"/>
<path d="M2290 2562 c16 -24 28 -32 41 -29 11 3 22 0 26 -5 4 -7 1 -8 -8 -3
-11 6 -12 5 -2 -5 16 -18 28 -6 18 17 -5 10 -7 25 -6 33 2 10 -5 7 -19 -9
l-23 -23 -24 28 -25 29 22 -33z"/>
<path d="M2404 2493 c2 -10 -4 -24 -13 -31 -9 -8 -11 -11 -4 -8 6 4 14 2 18
-4 4 -6 11 -8 16 -5 8 5 13 -7 11 -26 -1 -3 5 -6 12 -6 8 0 13 7 12 14 -3 17
-27 34 -38 27 -5 -3 -6 5 -3 19 4 14 2 28 -3 31 -6 3 -9 -2 -8 -11z"/>
<path d="M2579 2323 c9 -18 8 -23 -7 -27 -10 -3 -18 -16 -19 -28 -2 -22 -2
-22 9 -3 16 29 16 29 33 15 8 -7 15 -11 16 -9 6 31 6 38 -1 36 -5 -1 -16 7
-25 18 -16 20 -16 20 -6 -2z"/>
<path d="M2575 2261 c-3 -6 5 -15 17 -21 21 -10 21 -10 6 3 -10 8 -15 17 -11
20 3 4 4 7 0 7 -3 0 -8 -4 -12 -9z"/>
<path d="M2614 2258 c-5 -7 -3 -8 6 -3 10 6 12 4 6 -10 -5 -14 -4 -16 7 -7 8
7 17 9 20 5 4 -3 7 -3 7 0 0 3 -9 11 -19 17 -14 7 -22 7 -27 -2z"/>
<path d="M2644 2179 c-4 -7 -3 -9 4 -5 5 3 13 0 15 -6 4 -9 6 -10 6 -1 1 17
-16 25 -25 12z"/>
<path d="M2619 2178 c-5 -18 -6 -38 -1 -34 7 8 12 36 6 36 -2 0 -4 -1 -5 -2z"/>
<path d="M2670 2140 c0 -5 5 -10 10 -10 6 0 10 5 10 10 0 6 -4 10 -10 10 -5 0
-10 -4 -10 -10z"/>
<path d="M2715 2129 c-18 -9 -18 -9 3 -5 17 3 22 1 18 -9 -3 -8 0 -15 6 -17 6
-2 12 -11 14 -20 1 -11 -3 -15 -14 -11 -10 4 -13 2 -8 -5 13 -22 36 -14 32 11
-3 12 -5 23 -7 25 -1 1 -2 6 -3 12 -2 19 -21 28 -41 19z"/>
<path d="M2876 2131 c-4 -5 -2 -12 3 -15 5 -4 12 -2 15 3 4 5 2 12 -3 15 -5 4
-12 2 -15 -3z"/>
<path d="M2676 2081 c9 -9 34 -9 34 -1 0 5 -9 8 -20 7 -10 -1 -17 -3 -14 -6z"/>
<path d="M2868 2054 c9 -12 19 -18 21 -13 1 6 9 2 15 -7 12 -15 13 -15 11 4
-2 28 -11 36 -40 38 -23 1 -23 0 -7 -22z m38 4 c3 -4 -1 -5 -10 -4 -8 1 -18 5
-22 8 -3 4 1 5 10 4 8 -1 18 -5 22 -8z"/>
<path d="M2716 2048 c5 -7 2 -9 -8 -6 -8 4 -15 0 -15 -7 0 -10 5 -11 17 -5 10
5 21 6 26 2 5 -4 2 1 -5 11 -15 19 -26 23 -15 5z"/>
<path d="M2742 2004 c-7 -8 -8 -14 -3 -14 10 0 25 19 20 25 -2 1 -10 -3 -17
-11z"/>
<path d="M2683 1998 c-13 -22 -11 -65 3 -65 9 0 10 4 4 12 -10 12 -9 33 3 53
5 6 6 12 3 12 -3 0 -8 -6 -13 -12z"/>
<path d="M2875 2000 c-3 -5 -1 -10 4 -10 6 0 11 5 11 10 0 6 -2 10 -4 10 -3 0
-8 -4 -11 -10z"/>
<path d="M2815 1990 c-3 -5 -5 -10 -3 -11 29 -7 36 -5 31 7 -6 16 -19 18 -28
4z"/>
<path d="M2727 1959 c7 -7 15 -10 18 -7 3 3 -2 9 -12 12 -14 6 -15 5 -6 -5z"/>
<path d="M2895 1960 c3 -5 8 -10 11 -10 2 0 4 5 4 10 0 6 -5 10 -11 10 -5 0
-7 -4 -4 -10z"/>
<path d="M2674 1896 c1 -8 5 -18 8 -22 4 -3 5 1 4 10 -1 8 -5 18 -8 22 -4 3
-5 -1 -4 -10z"/>
<path d="M2720 1875 c-7 -9 -8 -15 -2 -15 5 0 12 7 16 15 3 8 4 15 2 15 -2 0
-9 -7 -16 -15z"/>
<path d="M2922 1851 c-8 -4 -28 -7 -45 -5 -22 3 -27 1 -18 -5 8 -5 21 -7 29
-3 10 3 13 1 8 -6 -4 -7 -1 -15 8 -18 9 -3 13 -10 10 -15 -3 -5 3 -6 12 -2 13
5 15 3 9 -7 -5 -9 -4 -11 3 -6 7 4 12 2 12 -5 0 -7 3 -9 6 -6 4 4 1 13 -6 22
-7 8 -9 15 -5 15 4 0 2 7 -5 15 -6 8 -9 19 -5 25 7 12 4 12 -13 1z m15 -38
c-8 -7 -37 9 -31 19 3 5 12 4 20 -3 8 -6 13 -14 11 -16z"/>
<path d="M2700 1838 c0 -11 22 -10 39 1 10 7 7 9 -12 8 -15 -1 -27 -5 -27 -9z"/>
<path d="M2810 1840 c0 -5 11 -12 24 -16 18 -4 23 -11 20 -27 -4 -21 -4 -21 5
-2 10 23 5 35 -15 35 -8 0 -14 5 -14 10 0 6 -4 10 -10 10 -5 0 -10 -4 -10 -10z"/>
<path d="M2718 1793 c7 -3 16 -2 19 1 4 3 -2 6 -13 5 -11 0 -14 -3 -6 -6z"/>
<path d="M2870 1780 c0 -4 7 -13 15 -20 13 -11 14 -10 9 5 -6 14 -4 16 7 10 8
-5 11 -4 6 0 -10 12 -37 15 -37 5z"/>
<path d="M2706 1771 c-3 -5 1 -14 9 -21 10 -9 15 -9 15 -1 0 6 -6 11 -12 11
-9 0 -8 4 2 10 9 6 10 10 3 10 -6 0 -14 -4 -17 -9z"/>
<path d="M2921 1766 c2 -2 15 -9 29 -15 24 -11 24 -11 6 3 -16 13 -49 24 -35
12z"/>
<path d="M2913 1743 c4 -3 -1 -16 -10 -27 -18 -21 -18 -21 5 -2 24 21 29 36
10 36 -6 0 -8 -3 -5 -7z"/>
<path d="M2820 1721 c0 -5 7 -12 16 -15 14 -5 15 -4 4 9 -14 17 -20 19 -20 6z"/>
<path d="M2950 1709 c0 -5 5 -7 10 -4 6 3 10 8 10 11 0 2 -4 4 -10 4 -5 0 -10
-5 -10 -11z"/>
<path d="M2916 1681 c9 -9 34 -9 34 -1 0 5 -9 8 -20 7 -10 -1 -17 -3 -14 -6z"/>
<path d="M2874 1666 c1 -8 5 -18 8 -22 4 -3 5 1 4 10 -1 8 -5 18 -8 22 -4 3
-5 -1 -4 -10z"/>
<path d="M2935 1649 c-4 -6 -5 -12 -2 -15 2 -3 7 2 10 11 7 17 1 20 -8 4z"/>
<path d="M2846 1642 c-3 -5 1 -9 9 -9 8 0 12 4 9 9 -3 4 -7 8 -9 8 -2 0 -6 -4
-9 -8z"/>
<path d="M2853 1595 c0 -8 4 -12 9 -9 4 3 8 9 8 15 0 5 -4 9 -8 9 -5 0 -9 -7
-9 -15z"/>
<path d="M2790 1582 c0 -5 7 -9 15 -9 8 0 12 4 9 9 -3 4 -9 8 -15 8 -5 0 -9
-4 -9 -8z"/>
<path d="M2676 1565 c-3 -8 -1 -15 4 -15 6 0 10 7 10 15 0 8 -2 15 -4 15 -2 0
-6 -7 -10 -15z"/>
<path d="M2829 1543 c-13 -16 -12 -17 4 -4 16 13 21 21 13 21 -2 0 -10 -8 -17
-17z"/>
<path d="M2686 1523 c-6 -14 -5 -15 5 -6 7 7 10 15 7 18 -3 3 -9 -2 -12 -12z"/>
<path d="M2871 1527 c-8 -10 -7 -14 2 -14 8 0 14 6 14 14 0 7 -1 13 -2 13 -2
0 -8 -6 -14 -13z"/>
<path d="M2656 1517 c3 -10 9 -15 12 -12 3 3 0 11 -7 18 -10 9 -11 8 -5 -6z"/>
<path d="M2797 1509 c7 -7 15 -10 18 -7 3 3 -2 9 -12 12 -14 6 -15 5 -6 -5z"/>
<path d="M2800 1486 c0 -2 8 -10 18 -17 15 -13 16 -12 3 4 -13 16 -21 21 -21
13z"/>
<path d="M2856 1473 c-6 -14 -5 -15 5 -6 7 7 10 15 7 18 -3 3 -9 -2 -12 -12z"/>
<path d="M2667 1439 c7 -7 15 -10 18 -7 3 3 -2 9 -12 12 -14 6 -15 5 -6 -5z"/>
<path d="M2760 1438 c0 -4 5 -8 11 -8 5 0 7 -6 3 -12 -4 -7 -3 -9 1 -5 15 13
14 34 -1 34 -8 0 -14 -4 -14 -9z"/>
<path d="M2808 1443 c6 -2 9 -10 6 -15 -4 -7 -2 -8 5 -4 13 9 5 26 -12 25 -9
0 -8 -2 1 -6z"/>
<path d="M2855 1440 c-3 -5 -1 -10 4 -10 6 0 11 5 11 10 0 6 -2 10 -4 10 -3 0
-8 -4 -11 -10z"/>
<path d="M2916 1441 c-3 -4 6 -7 19 -7 14 0 22 2 19 5 -8 8 -34 10 -38 2z"/>
<path d="M2623 1418 c-4 -7 -1 -8 7 -3 10 6 12 3 7 -11 -7 -18 -6 -18 6 -2 8
10 16 17 18 15 2 -1 3 0 1 2 -6 10 -32 9 -39 -1z"/>
<path d="M2813 1393 c0 -10 4 -10 16 -1 9 7 18 13 20 15 2 1 -5 1 -16 0 -11 0
-20 -7 -20 -14z"/>
<path d="M2760 1396 c0 -2 7 -7 16 -10 8 -3 12 -2 9 4 -6 10 -25 14 -25 6z"/>
<path d="M2870 1376 c7 -7 13 -7 20 0 6 6 3 10 -10 10 -13 0 -16 -4 -10 -10z"/>
<path d="M2913 1375 c0 -8 4 -12 9 -9 4 3 8 9 8 15 0 5 -4 9 -8 9 -5 0 -9 -7
-9 -15z"/>
<path d="M2746 1364 c-5 -14 -4 -15 9 -4 17 14 19 20 6 20 -5 0 -12 -7 -15
-16z"/>
<path d="M2610 1359 c0 -5 5 -7 10 -4 6 3 10 8 10 11 0 2 -4 4 -10 4 -5 0 -10
-5 -10 -11z"/>
<path d="M2785 1359 c-3 -4 2 -6 10 -5 21 3 28 13 10 13 -9 0 -18 -4 -20 -8z"/>
<path d="M2741 1331 c-11 -11 -22 -17 -25 -13 -3 3 -6 0 -6 -7 0 -8 6 -11 16
-7 9 3 18 6 20 6 3 0 2 5 -2 12 -5 7 -2 9 8 6 9 -4 15 0 15 8 0 18 -3 18 -26
-5z"/>
<path d="M2657 1326 c-4 -10 -3 -15 2 -12 16 10 20 -21 5 -43 -17 -24 -10 -28
11 -7 8 7 11 16 8 20 -4 3 -1 6 5 6 7 0 12 5 12 12 0 6 -3 8 -7 4 -4 -3 -12 3
-18 15 -11 19 -13 19 -18 5z"/>
<path d="M2575 1320 c-2 -3 5 -7 16 -7 10 -1 19 2 19 6 0 9 -29 10 -35 1z"/>
<path d="M2910 1319 c0 -5 5 -7 10 -4 6 3 10 8 10 11 0 2 -4 4 -10 4 -5 0 -10
-5 -10 -11z"/>
<path d="M2797 1313 c-10 -9 -9 -23 1 -23 5 0 9 7 9 15 0 17 -1 18 -10 8z"/>
<path d="M2829 1303 c-13 -16 -12 -17 4 -4 16 13 21 21 13 21 -2 0 -10 -8 -17
-17z"/>
<path d="M2631 1289 c5 -10 12 -19 15 -19 3 0 3 4 0 9 -4 5 -1 11 6 13 7 3 3
7 -10 10 -19 5 -20 4 -11 -13z"/>
<path d="M2750 1291 c0 -7 -4 -9 -10 -6 -5 3 -7 0 -4 -9 4 -11 0 -13 -15 -9
-12 3 -21 1 -21 -4 0 -16 42 -7 52 11 5 10 7 20 4 23 -3 4 -6 1 -6 -6z"/>
<path d="M2855 1289 c-4 -6 -5 -12 -2 -15 2 -3 7 2 10 11 7 17 1 20 -8 4z"/>
<path d="M2604 1279 c-3 -6 -2 -15 4 -21 6 -6 12 -6 17 3 6 8 4 10 -5 4 -10
-6 -12 -4 -7 8 7 19 2 23 -9 6z"/>
<path d="M2876 1273 c-6 -14 -5 -15 5 -6 7 7 10 15 7 18 -3 3 -9 -2 -12 -12z"/>
<path d="M2635 1241 c3 -5 0 -11 -7 -13 -7 -3 -5 -7 6 -11 9 -4 15 -3 11 2 -3
5 0 11 7 13 7 3 5 7 -6 11 -9 4 -15 3 -11 -2z"/>
<path d="M2750 1235 c0 -8 4 -15 10 -15 5 0 7 7 4 15 -4 8 -8 15 -10 15 -2 0
-4 -7 -4 -15z"/>
<path d="M2833 1237 c0 -20 24 -30 33 -14 4 7 4 9 -1 5 -4 -4 -13 0 -20 8 -11
15 -12 15 -12 1z"/>
<path d="M2708 1233 c6 -2 9 -10 6 -15 -4 -7 -2 -8 4 -4 18 11 14 26 -5 25
-11 0 -13 -3 -5 -6z"/>
<path d="M2663 1214 c-3 -8 4 -29 16 -45 l22 -29 -21 0 c-12 0 -18 5 -15 10 3
6 -1 13 -9 16 -9 3 -13 10 -10 15 3 5 -2 6 -11 3 -11 -5 -14 -2 -9 10 3 9 2
16 -4 16 -18 0 -6 -32 16 -44 11 -6 21 -15 21 -21 1 -5 11 -10 24 -10 13 0 21
5 19 13 -2 10 4 12 20 7 20 -5 21 -4 5 5 -9 6 -21 8 -27 5 -11 -7 -33 32 -27
48 3 7 9 1 15 -13 11 -26 16 -13 6 14 -8 20 -23 20 -31 0z"/>
<path d="M2516 1207 c3 -10 9 -15 12 -12 3 3 0 11 -7 18 -10 9 -11 8 -5 -6z"/>
<path d="M2719 1193 c-13 -17 -13 -17 6 -3 11 8 22 16 24 17 2 2 0 3 -6 3 -6
0 -17 -8 -24 -17z"/>
<path d="M2765 1200 c-2 -3 7 -6 21 -6 13 0 24 3 24 7 0 9 -40 8 -45 -1z"/>
<path d="M2734 1179 c-4 -7 -3 -9 4 -5 5 3 13 0 15 -6 4 -9 6 -10 6 -1 1 17
-16 25 -25 12z"/>
<path d="M2814 1179 c-5 -8 -3 -9 6 -4 10 6 12 4 7 -7 -3 -9 1 -25 9 -37 16
-22 6 -29 -14 -9 -6 6 -13 10 -15 7 -2 -2 4 -11 14 -21 16 -15 19 -15 38 6 19
20 20 24 6 36 -10 8 -15 9 -15 1 0 -6 5 -11 11 -11 5 0 7 -5 3 -12 -9 -15 -35
19 -28 37 7 17 -12 29 -22 14z"/>
<path d="M2855 1180 c-8 -13 5 -13 25 0 13 8 13 10 -2 10 -9 0 -20 -4 -23 -10z"/>
<path d="M2529 1163 c-8 -9 -9 -14 -2 -10 6 4 13 1 16 -5 3 -7 4 -3 4 10 -1
26 -1 26 -18 5z"/>
<path d="M2600 1160 c8 -5 20 -10 25 -10 6 0 3 5 -5 10 -8 5 -19 10 -25 10 -5
0 -3 -5 5 -10z"/>
<path d="M2780 1156 c0 -2 7 -7 16 -10 8 -3 12 -2 9 4 -6 10 -25 14 -25 6z"/>
<path d="M2509 1138 c11 -15 11 -21 0 -35 -12 -17 -12 -17 6 0 19 17 19 17 0
35 -18 16 -18 16 -6 0z"/>
<path d="M2750 1141 c0 -6 4 -12 8 -15 5 -3 9 1 9 9 0 8 -4 15 -9 15 -4 0 -8
-4 -8 -9z"/>
<path d="M2600 1133 c0 -7 5 -15 11 -19 8 -4 7 -9 -2 -15 -20 -12 -31 -11 -23
3 4 7 3 8 -4 4 -17 -10 -15 -14 11 -27 12 -6 19 -8 15 -4 -4 4 -1 13 7 19 12
10 12 14 0 30 -8 11 -15 15 -15 9z"/>
<path d="M2630 1130 c0 -5 5 -10 11 -10 5 0 7 5 4 10 -3 6 -8 10 -11 10 -2 0
-4 -4 -4 -10z"/>
<path d="M2541 1114 c0 -11 3 -14 6 -6 3 7 2 16 -1 19 -3 4 -6 -2 -5 -13z"/>
<path d="M2700 1120 c-11 -8 -8 -9 13 -4 21 5 27 3 25 -7 -4 -19 44 -18 49 1
3 9 1 11 -4 5 -12 -15 -44 -18 -41 -4 4 17 -23 22 -42 9z"/>
<path d="M2645 1103 c6 -4 11 -15 13 -25 2 -12 -3 -15 -17 -11 -10 2 -21 1
-24 -4 -3 -5 7 -8 21 -7 21 1 27 6 27 24 0 13 -7 25 -15 27 -9 3 -11 1 -5 -4z"/>
<path d="M2410 1096 c0 -2 8 -10 18 -17 15 -13 16 -12 3 4 -13 16 -21 21 -21
13z"/>
<path d="M2681 1084 c0 -11 3 -14 6 -6 3 7 2 16 -1 19 -3 4 -6 -2 -5 -13z"/>
<path d="M2710 1091 c0 -9 30 -24 36 -18 2 1 -6 8 -16 15 -11 7 -20 8 -20 3z"/>
<path d="M2465 1080 c-3 -6 1 -7 9 -4 18 7 21 14 7 14 -6 0 -13 -4 -16 -10z"/>
<path d="M2557 1073 c-10 -9 -9 -23 1 -23 5 0 9 7 9 15 0 17 -1 18 -10 8z"/>
<path d="M2694 1059 c-3 -6 -2 -15 4 -21 12 -12 32 -2 31 15 0 9 -2 9 -6 0 -2
-7 -9 -13 -14 -13 -4 0 -6 7 -3 15 7 17 -2 20 -12 4z"/>
<path d="M2453 1045 c0 -8 3 -13 5 -10 3 3 10 0 17 -5 8 -7 12 -5 12 5 0 8 -3
13 -5 10 -3 -3 -10 0 -17 5 -8 7 -12 5 -12 -5z"/>
<path d="M2752 1040 c0 -14 2 -19 5 -12 2 6 2 18 0 25 -3 6 -5 1 -5 -13z"/>
<path d="M2334 1034 c1 -8 6 -17 11 -21 4 -4 5 -2 1 5 -4 6 -3 12 1 12 5 0 15
-6 22 -12 11 -11 11 -9 1 8 -14 23 -39 28 -36 8z"/>
<path d="M2592 1036 c7 -8 15 -12 17 -11 5 6 -10 25 -20 25 -5 0 -4 -6 3 -14z"/>
<path d="M2575 1021 c-9 -15 29 -31 46 -20 12 8 12 10 -1 8 -29 -3 -41 1 -35
11 3 6 4 10 1 10 -3 0 -7 -4 -11 -9z"/>
<path d="M2730 1021 c0 -7 -5 -9 -12 -5 -7 5 -8 3 -3 -5 5 -9 10 -10 18 -2 6
6 8 14 4 18 -4 3 -7 1 -7 -6z"/>
<path d="M2463 1002 c10 -10 14 -22 10 -27 -5 -4 -2 -5 5 -1 11 6 10 12 -4 27
-9 10 -19 19 -22 19 -3 0 2 -8 11 -18z"/>
<path d="M2310 1000 c0 -5 5 -10 10 -10 6 0 10 5 10 10 0 6 -4 10 -10 10 -5 0
-10 -4 -10 -10z"/>
<path d="M2245 990 c-8 -13 15 -24 27 -12 6 6 4 11 -6 15 -8 3 -18 2 -21 -3z"/>
<path d="M2432 987 c-8 -10 -6 -13 7 -13 11 0 17 6 14 13 -3 7 -6 13 -8 13 -1
0 -7 -6 -13 -13z"/>
<path d="M2555 989 c-4 -6 -5 -12 -2 -15 2 -3 7 2 10 11 7 17 1 20 -8 4z"/>
<path d="M2292 985 c4 -4 0 -14 -10 -22 -9 -8 -12 -12 -5 -9 6 4 13 1 15 -6 3
-7 7 -2 10 10 4 12 1 25 -5 29 -7 3 -9 3 -5 -2z"/>
<path d="M2386 978 c3 -5 10 -6 15 -3 13 9 11 12 -6 12 -8 0 -12 -4 -9 -9z"/>
<path d="M2510 973 c6 -13 15 -23 21 -23 6 0 7 -5 3 -12 -4 -7 -3 -8 4 -4 6 4
9 13 5 22 -3 8 -8 12 -11 10 -3 -3 -11 2 -19 12 -13 15 -13 15 -3 -5z"/>
<path d="M2579 988 c0 -2 -2 -13 -5 -26 -3 -19 -2 -21 10 -10 8 7 10 15 5 16
-5 2 -7 8 -3 13 3 5 3 9 0 9 -3 0 -6 -1 -7 -2z"/>
<path d="M2619 988 c-6 -21 -5 -37 2 -32 5 3 9 0 9 -5 0 -14 11 -14 30 -1 13
9 12 12 -4 25 -18 13 -35 19 -37 13z m30 -17 c8 -5 9 -11 3 -15 -5 -3 -15 1
-22 9 -14 16 -3 20 19 6z"/>
<path d="M2226 962 c-8 -13 18 -34 29 -24 5 4 5 -1 2 -10 -4 -10 -2 -18 3 -18
6 0 10 6 10 13 0 19 -37 51 -44 39z"/>
<path d="M2320 940 c-9 -6 -10 -10 -3 -10 6 0 15 5 18 10 8 12 4 12 -15 0z"/>
<path d="M2590 940 c0 -5 5 -10 10 -10 6 0 10 -4 10 -10 0 -5 -8 -7 -17 -4
-14 5 -15 4 -4 -4 14 -10 41 -6 41 7 0 3 -9 12 -20 19 -12 7 -20 8 -20 2z"/>
<path d="M2374 920 c0 -13 4 -16 10 -10 7 7 7 13 0 20 -6 6 -10 3 -10 -10z"/>
<path d="M2339 913 c-13 -16 -12 -17 4 -4 16 13 21 21 13 21 -2 0 -10 -8 -17
-17z"/>
<path d="M2544 916 c-3 -8 -12 -12 -20 -9 -8 3 -14 3 -14 0 0 -15 29 -13 43 4
9 10 12 19 7 19 -6 0 -13 -6 -16 -14z"/>
<path d="M2439 918 c-5 -18 -6 -38 -1 -34 7 8 12 36 6 36 -2 0 -4 -1 -5 -2z"/>
<path d="M2399 893 c-13 -16 -12 -17 4 -4 16 13 21 21 13 21 -2 0 -10 -8 -17
-17z"/>
<path d="M2466 901 c-4 -5 3 -7 14 -4 23 6 26 13 6 13 -8 0 -17 -4 -20 -9z"/>
<path d="M2556 893 c-6 -14 -5 -15 5 -6 7 7 10 15 7 18 -3 3 -9 -2 -12 -12z"/>
<path d="M2696 903 c-4 -5 -12 -8 -18 -8 -6 0 -12 -8 -14 -19 -2 -16 0 -16 22
5 13 12 24 24 24 26 0 5 -6 3 -14 -4z"/>
<path d="M2275 888 c25 -15 47 -19 39 -7 -3 5 -9 7 -14 4 -5 -3 -11 -1 -15 5
-3 5 -12 10 -18 10 -7 0 -3 -6 8 -12z"/>
<path d="M2210 876 c0 -20 12 -25 35 -15 18 8 18 9 -3 5 -17 -3 -22 -1 -18 10
3 8 1 14 -4 14 -6 0 -10 -6 -10 -14z"/>
<path d="M2190 865 c0 -5 5 -17 10 -25 5 -8 10 -10 10 -5 0 6 -5 17 -10 25 -5
8 -10 11 -10 5z"/>
<path d="M2353 847 c-1 -11 -1 -18 0 -16 2 2 8 11 15 20 9 12 9 16 -1 16 -7 0
-14 -9 -14 -20z"/>
<path d="M2395 862 c3 -3 -3 -15 -12 -26 -13 -15 -10 -14 10 3 32 29 31 28 12
28 -8 0 -13 -3 -10 -5z"/>
<path d="M2485 860 c-16 -7 -17 -9 -3 -9 9 -1 20 4 23 9 7 11 7 11 -20 0z"/>
<path d="M2434 833 c2 -9 8 -18 15 -19 6 -1 7 0 2 2 -6 3 -7 12 -4 20 3 8 1
14 -5 14 -6 0 -9 -8 -8 -17z"/>
<path d="M2240 820 c-9 -6 -10 -10 -3 -10 6 0 15 5 18 10 8 12 4 12 -15 0z"/>
<path d="M2304 822 c4 -3 14 -7 22 -8 9 -1 13 0 10 4 -4 3 -14 7 -22 8 -9 1
-13 0 -10 -4z"/>
<path d="M2197 813 c-10 -10 -8 -23 4 -23 5 0 8 4 5 9 -4 5 0 12 6 14 7 3 8 6
2 6 -6 1 -14 -2 -17 -6z"/>
<path d="M2466 804 c-11 -8 -16 -14 -10 -14 13 0 39 18 34 24 -3 2 -14 -2 -24
-10z"/>
<path d="M2134 795 c1 -9 12 -22 24 -31 20 -13 21 -13 16 1 -3 8 -12 15 -20
15 -8 0 -11 6 -8 15 4 8 2 15 -4 15 -6 0 -9 -7 -8 -15z"/>
<path d="M2393 795 c0 -8 4 -12 9 -9 4 3 8 9 8 15 0 5 -4 9 -8 9 -5 0 -9 -7
-9 -15z"/>
<path d="M2340 786 c0 -2 8 -10 18 -17 15 -13 16 -12 3 4 -13 16 -21 21 -21
13z"/>
<path d="M2426 776 c5 -13 4 -17 -4 -12 -8 4 -10 2 -6 -8 4 -11 0 -13 -15 -9
-12 3 -21 3 -21 0 0 -2 9 -7 20 -10 25 -7 48 29 30 47 -8 8 -9 6 -4 -8z"/>
<path d="M2110 760 c-13 -8 -12 -10 3 -10 9 0 17 5 17 10 0 12 -1 12 -20 0z"/>
<path d="M2211 754 c0 -11 3 -14 6 -6 3 7 2 16 -1 19 -3 4 -6 -2 -5 -13z"/>
<path d="M2270 763 c0 -6 8 -17 18 -24 16 -13 16 -13 2 6 -8 11 -16 22 -17 24
-2 2 -3 0 -3 -6z"/>
<path d="M2314 748 c2 -13 -1 -32 -6 -43 -8 -18 -8 -19 5 -3 8 10 18 14 23 10
4 -4 3 0 -3 8 -6 8 -9 23 -8 33 2 9 -1 17 -6 17 -5 0 -7 -10 -5 -22z"/>
<path d="M2235 730 c-4 -6 -12 -7 -18 -4 -7 4 -8 3 -4 -1 13 -15 34 -14 34 1
0 17 -4 18 -12 4z"/>
<path d="M2135 720 c3 -5 8 -10 11 -10 2 0 4 5 4 10 0 6 -5 10 -11 10 -5 0 -7
-4 -4 -10z"/>
<path d="M2371 714 c0 -11 3 -14 6 -6 3 7 2 16 -1 19 -3 4 -6 -2 -5 -13z"/>
<path d="M2111 687 c-13 -21 -12 -21 5 -5 10 10 16 20 13 22 -3 3 -11 -5 -18
-17z"/>
<path d="M2220 694 c0 -5 7 -18 15 -28 8 -11 15 -16 15 -10 0 5 -7 18 -15 28
-8 11 -15 16 -15 10z"/>
<path d="M2256 686 c3 -7 11 -13 19 -13 22 0 18 14 -4 20 -13 3 -18 0 -15 -7z"/>
<path d="M2134 679 c-3 -5 3 -6 12 -2 13 5 15 3 9 -8 -7 -12 -6 -12 11 1 10 8
20 15 22 16 2 1 -9 2 -23 2 -14 0 -28 -4 -31 -9z"/>
<path d="M2076 664 c-8 -20 -8 -24 2 -24 4 0 8 9 9 20 2 24 -3 26 -11 4z"/>
<path d="M2175 661 c-3 -5 0 -13 6 -17 7 -4 9 -3 5 4 -4 7 1 10 14 9 22 -1 27
-13 8 -20 -7 -2 -1 -4 14 -4 25 0 26 1 11 15 -19 19 -50 26 -58 13z"/>
<path d="M2155 620 c-4 -12 -11 -17 -18 -13 -7 4 -7 0 1 -10 8 -9 11 -21 7
-27 -3 -5 -2 -10 4 -10 15 0 33 38 21 45 -5 3 -7 12 -3 20 3 8 3 15 0 15 -3 0
-9 -9 -12 -20z"/>
<path d="M2010 529 c0 -14 28 -30 35 -19 3 6 12 7 18 3 8 -4 7 -1 -1 9 -13 16
-52 21 -52 7z"/>
<path d="M1743 493 c-7 -2 -13 -12 -13 -21 1 -15 2 -15 11 1 6 9 14 15 20 12
5 -4 9 -1 9 4 0 12 -7 13 -27 4z"/>
<path d="M1797 484 c-3 -3 -3 -13 0 -21 5 -12 7 -12 14 -1 15 23 4 40 -14 22z"/>
<path d="M1666 462 c-3 -5 1 -9 9 -9 8 0 15 4 15 9 0 4 -4 8 -9 8 -6 0 -12 -4
-15 -8z"/>
<path d="M1750 458 c0 -6 6 -8 14 -5 10 4 14 0 13 -14 -1 -11 -9 -19 -20 -19
-10 0 -16 4 -12 9 3 5 1 12 -4 15 -5 4 -8 -2 -7 -11 2 -12 12 -18 27 -18 18 0
24 5 24 24 0 15 -6 25 -17 27 -10 1 -18 -2 -18 -8z"/>
<path d="M1870 464 c0 -7 27 -34 34 -34 4 0 1 9 -6 20 -12 19 -28 27 -28 14z"/>
<path d="M1700 451 c0 -6 4 -13 10 -16 6 -3 7 1 4 9 -7 18 -14 21 -14 7z"/>
<path d="M2105 440 c-4 -11 -11 -18 -16 -15 -5 4 -14 -5 -20 -19 -7 -14 -16
-23 -22 -19 -6 4 -7 1 -2 -7 6 -10 11 -9 22 5 7 11 13 23 13 28 0 4 5 5 10 2
6 -3 13 1 16 9 3 9 10 13 15 10 5 -3 6 2 3 10 -8 21 -11 20 -19 -4z"/>
<path d="M1615 440 c-3 -5 -1 -10 4 -10 6 0 11 5 11 10 0 6 -2 10 -4 10 -3 0
-8 -4 -11 -10z"/>
<path d="M1838 442 c13 -4 23 -11 22 -17 -1 -5 7 -11 17 -12 17 -3 17 -2 0 5
-10 4 -17 12 -15 17 2 6 -8 11 -22 12 -24 2 -24 2 -2 -5z"/>
<path d="M2035 440 c27 -12 43 -12 25 0 -8 5 -22 9 -30 9 -10 0 -8 -3 5 -9z"/>
<path d="M2142 426 c-10 -14 -21 -23 -24 -21 -3 3 -5 -2 -5 -10 0 -22 15 -18
22 5 4 11 11 18 16 14 5 -3 6 -11 3 -17 -4 -8 -2 -7 7 1 12 11 12 14 0 21 -11
7 -11 9 0 13 8 3 11 8 8 12 -4 4 -16 -4 -27 -18z"/>
<path d="M1670 431 c0 -7 -5 -9 -12 -5 -7 5 -8 3 -3 -5 5 -9 10 -10 18 -2 6 6
8 14 4 18 -4 3 -7 1 -7 -6z"/>
<path d="M1801 433 c-1 -17 16 -25 25 -12 4 7 3 9 -4 5 -5 -3 -13 0 -15 6 -4
9 -6 10 -6 1z"/>
<path d="M1550 420 c0 -5 7 -7 15 -4 8 4 15 8 15 10 0 2 -7 4 -15 4 -8 0 -15
-4 -15 -10z"/>
<path d="M1702 417 c10 -8 16 -16 13 -19 -3 -2 2 -5 10 -5 19 0 10 14 -18 27
-20 10 -20 10 -5 -3z"/>
<path d="M1630 413 c5 -2 8 -9 4 -14 -3 -5 0 -9 6 -9 15 0 7 23 -8 26 -7 1 -8
0 -2 -3z"/>
<path d="M1946 405 c-9 -26 -7 -32 5 -12 6 10 9 21 6 23 -2 3 -7 -2 -11 -11z"/>
<path d="M2030 410 c-9 -6 -10 -10 -3 -10 6 0 15 5 18 10 8 12 4 12 -15 0z"/>
<path d="M1830 400 c0 -5 5 -10 10 -10 6 0 10 5 10 10 0 6 -4 10 -10 10 -5 0
-10 -4 -10 -10z"/>
<path d="M1799 369 c-6 -13 -7 -19 -1 -15 6 3 13 0 16 -6 3 -7 3 -2 0 11 -5
17 -3 21 6 16 9 -5 11 -4 6 3 -10 16 -14 15 -27 -9z"/>
<path d="M1867 373 c4 -11 2 -14 -5 -9 -8 5 -10 2 -6 -9 5 -11 2 -14 -10 -9
-9 3 -16 4 -16 1 0 -3 6 -7 14 -10 8 -3 21 4 30 18 13 20 13 24 1 29 -10 3
-12 0 -8 -11z"/>
<path d="M1956 373 c-6 -14 -5 -15 5 -6 7 7 10 15 7 18 -3 3 -9 -2 -12 -12z"/>
<path d="M2010 380 c-9 -6 -10 -10 -3 -10 6 0 15 5 18 10 8 12 4 12 -15 0z"/>
<path d="M1752 364 c-7 -8 -8 -14 -3 -14 10 0 25 19 20 25 -2 1 -10 -3 -17
-11z"/>
<path d="M2070 359 c0 -5 5 -7 10 -4 6 3 10 8 10 11 0 2 -4 4 -10 4 -5 0 -10
-5 -10 -11z"/>
<path d="M1892 351 c5 -16 44 -25 53 -12 3 5 0 13 -6 17 -8 5 -9 3 -5 -5 10
-15 -25 -11 -37 4 -5 6 -7 4 -5 -4z"/>
<path d="M1990 351 c0 -6 4 -13 10 -16 6 -3 7 1 4 9 -7 18 -14 21 -14 7z"/>
<path d="M1954 329 c-3 -6 -3 -13 0 -16 3 -4 6 -1 6 5 0 6 7 9 15 6 8 -4 15
-4 15 -1 0 11 -30 16 -36 6z"/>
<path d="M1820 319 c0 -5 5 -7 10 -4 6 3 10 8 10 11 0 2 -4 4 -10 4 -5 0 -10
-5 -10 -11z"/>
<path d="M1133 2816 c-3 -5 -1 -6 4 -3 6 4 13 0 17 -8 3 -8 1 -17 -4 -20 -4
-3 -11 1 -13 7 -4 8 -6 9 -6 2 -1 -6 7 -18 16 -25 11 -10 14 -10 9 -1 -4 7 -2
12 4 12 7 0 10 6 7 14 -3 7 -1 18 4 23 5 5 0 9 -12 9 -11 0 -23 -5 -26 -10z"/>
<path d="M1101 2793 c-7 -8 -11 -16 -8 -19 2 -2 10 2 17 11 17 20 9 27 -9 8z"/>
<path d="M1070 2760 c0 -6 7 -10 15 -10 8 0 15 2 15 4 0 2 -7 6 -15 10 -8 3
-15 1 -15 -4z"/>
<path d="M1025 2739 c-6 -8 -4 -10 5 -4 10 6 12 4 6 -11 -6 -15 -5 -17 5 -6 9
9 10 15 2 23 -8 8 -13 7 -18 -2z"/>
<path d="M995 2680 c-5 -8 -4 -11 2 -7 6 4 14 0 17 -9 5 -13 9 -14 21 -4 8 7
15 18 15 24 0 6 -5 3 -11 -7 -10 -17 -12 -17 -23 -1 -10 13 -15 14 -21 4z"/>
<path d="M976 2657 c3 -10 9 -15 12 -12 3 3 0 11 -7 18 -10 9 -11 8 -5 -6z"/>
<path d="M956 2635 c-9 -26 -7 -32 5 -12 6 10 9 21 6 23 -2 3 -7 -2 -11 -11z"/>
<path d="M1029 2593 c-13 -16 -12 -17 4 -4 9 7 17 15 17 17 0 8 -8 3 -21 -13z"/>
<path d="M850 2580 c-9 -6 -10 -10 -3 -10 6 0 15 5 18 10 8 12 4 12 -15 0z"/>
<path d="M869 2525 c-1 -3 -2 -11 -3 -17 -1 -7 -9 -12 -17 -10 -9 1 -21 -4
-28 -11 -8 -11 -7 -14 7 -14 18 0 62 34 62 49 0 9 -19 11 -21 3z"/>
<path d="M900 2520 c0 -5 4 -10 9 -10 6 0 13 5 16 10 3 6 -1 10 -9 10 -9 0
-16 -4 -16 -10z"/>
<path d="M784 2485 c-4 -8 -9 -13 -13 -10 -4 2 -8 -2 -8 -10 0 -8 3 -13 5 -10
3 3 12 -1 21 -7 13 -10 14 -10 4 2 -8 9 -9 19 -2 32 5 10 7 18 4 18 -3 0 -8
-7 -11 -15z"/>
<path d="M1160 2670 c-16 -23 -15 -33 5 -36 12 -2 13 1 5 10 -8 10 -5 13 15
11 30 -4 30 -4 6 17 -17 14 -19 14 -31 -2z"/>
<path d="M2677 2373 c-11 -11 -8 -21 9 -27 13 -5 14 -4 6 7 -7 8 -9 17 -5 20
3 4 4 7 1 7 -2 0 -8 -3 -11 -7z"/>
<path d="M2780 2230 c-9 -6 -10 -10 -3 -10 6 0 15 5 18 10 8 12 4 12 -15 0z"/>
<path d="M2803 1953 c4 -6 1 -14 -5 -16 -10 -4 -10 -6 0 -6 7 -1 11 -5 8 -10
-11 -17 23 -20 36 -3 12 16 11 16 -6 2 -18 -14 -19 -13 -13 2 3 10 -1 22 -11
30 -9 8 -13 8 -9 1z"/>
<path d="M2581 1756 c-9 -11 -10 -20 -1 -35 10 -20 4 -26 -22 -22 -12 2 -9
-11 7 -29 13 -14 12 -20 -10 -52 -20 -30 -22 -37 -10 -42 9 -3 20 3 27 14 10
15 15 17 28 7 12 -9 13 -9 3 3 -7 8 -13 18 -13 22 0 4 6 7 13 6 7 -2 11 5 9
17 -2 11 -4 28 -6 37 -1 10 -5 21 -9 24 -4 4 -1 14 6 22 10 13 9 15 -7 9 -16
-6 -17 -5 -6 8 7 9 11 18 8 20 -3 3 -11 -1 -17 -9z m10 -83 c13 -16 12 -17 -3
-4 -10 7 -18 15 -18 17 0 8 8 3 21 -13z m19 -31 c0 -5 -7 -9 -15 -9 -8 0 -15
4 -15 9 0 4 7 8 15 8 8 0 15 -4 15 -8z m-40 -42 c-6 -11 -13 -20 -16 -20 -2 0
0 9 6 20 6 11 13 20 16 20 2 0 0 -9 -6 -20z"/>
<path d="M2520 1509 c0 -5 5 -7 10 -4 6 3 10 8 10 11 0 2 -4 4 -10 4 -5 0 -10
-5 -10 -11z"/>
<path d="M373 1755 c0 -8 4 -12 9 -9 5 3 6 10 3 15 -9 13 -12 11 -12 -6z"/>
<path d="M348 1633 c7 -3 16 -2 19 1 4 3 -2 6 -13 5 -11 0 -14 -3 -6 -6z"/>
<path d="M330 1610 c6 -11 13 -20 16 -20 2 0 0 9 -6 20 -6 11 -13 20 -16 20
-2 0 0 -9 6 -20z"/>
<path d="M340 1565 c0 -7 30 -13 34 -7 3 4 -4 9 -15 9 -10 1 -19 0 -19 -2z"/>
<path d="M394 1562 c3 -6 0 -13 -6 -16 -7 -3 -2 -3 11 0 17 5 21 3 16 -6 -5
-9 -4 -11 3 -6 16 10 15 14 -9 27 -13 6 -19 7 -15 1z"/>
<path d="M335 1540 c-8 -13 3 -30 18 -29 9 0 9 2 0 6 -7 2 -13 9 -13 14 0 6 5
7 12 3 7 -4 8 -3 4 4 -9 15 -13 15 -21 2z"/>
<path d="M374 1512 c3 -16 34 -37 43 -28 4 3 1 6 -6 6 -7 0 -9 4 -6 10 4 6 -1
7 -12 3 -15 -6 -16 -4 -6 8 10 13 10 16 -1 16 -8 0 -13 -7 -12 -15z"/>
<path d="M359 1487 c15 -18 3 -23 -17 -7 -7 5 -6 3 2 -6 9 -11 19 -13 30 -7
13 7 13 10 -7 22 -20 13 -21 13 -8 -2z"/>
<path d="M2700 1480 c-8 -5 -10 -10 -5 -10 6 0 17 5 25 10 8 5 11 10 5 10 -5
0 -17 -5 -25 -10z"/>
<path d="M445 1360 c-3 -6 1 -7 9 -4 18 7 21 14 7 14 -6 0 -13 -4 -16 -10z"/>
<path d="M544 1242 c4 -7 3 -12 -1 -12 -5 0 -9 -10 -10 -22 0 -13 1 -17 4 -9
4 10 7 10 13 1 5 -8 9 -7 13 5 5 11 3 14 -5 9 -8 -5 -9 -2 -5 9 3 9 1 19 -5
23 -7 4 -8 3 -4 -4z"/>
<path d="M555 1171 c-3 -5 -1 -12 5 -16 5 -3 10 1 10 9 0 18 -6 21 -15 7z"/>
<path d="M585 1163 c2 -10 4 -19 5 -20 2 -2 3 -7 4 -13 0 -5 4 -10 9 -10 4 0
10 0 14 0 3 0 -1 8 -10 18 -8 9 -16 21 -15 25 0 5 -3 11 -5 14 -3 3 -4 -3 -2
-14z"/>
<path d="M647 957 c-3 -8 11 -29 34 -49 21 -19 39 -30 39 -25 0 13 24 -9 26
-23 1 -6 2 -15 3 -21 1 -8 5 -8 15 0 10 8 16 8 25 -3 8 -10 9 -16 1 -21 -6 -3
-8 -10 -5 -15 8 -13 42 -8 42 7 0 7 -2 11 -4 9 -6 -6 -78 68 -75 77 1 5 -2 6
-7 3 -5 -3 -19 6 -30 21 -11 16 -21 22 -21 16 0 -7 -5 -13 -11 -13 -5 0 -8 3
-5 8 2 4 -2 15 -9 25 -10 14 -14 15 -18 4z m64 -54 c13 -16 12 -17 -3 -4 -10
7 -18 15 -18 17 0 8 8 3 21 -13z"/>
<path d="M866 801 c-4 -5 2 -14 11 -20 10 -6 12 -11 6 -11 -7 0 -13 -5 -13
-12 0 -9 3 -9 12 0 9 9 16 8 32 -6 16 -12 14 -9 -4 13 -14 17 -28 34 -31 38
-4 5 -10 4 -13 -2z"/>
<path d="M925 701 c-6 -11 9 -23 19 -14 9 9 7 23 -3 23 -6 0 -12 -4 -16 -9z"/>
<path d="M1955 699 c3 -4 -6 -16 -19 -26 -22 -18 -22 -20 -8 -31 13 -9 13 -11
2 -9 -8 1 -14 -2 -15 -8 0 -5 -4 -16 -9 -24 -7 -11 -10 -11 -17 0 -4 7 -11 10
-16 6 -4 -5 -1 -12 6 -16 16 -11 3 -19 -26 -16 -19 1 -20 -1 -12 -17 8 -14 14
-16 23 -9 7 6 17 7 21 3 5 -4 5 -2 2 4 -4 7 1 18 10 25 15 12 16 12 10 -3 -4
-11 2 -22 19 -33 14 -9 22 -19 20 -24 -3 -4 1 -8 9 -8 8 0 11 5 7 11 -12 19
-11 40 1 48 9 6 9 8 -1 8 -7 0 -10 5 -6 12 5 8 10 7 18 -4 10 -13 13 -13 24
-2 10 11 10 14 0 14 -8 0 -9 3 -3 8 13 9 17 62 4 62 -5 0 -9 8 -7 17 2 12 -4
18 -19 19 -12 1 -20 -2 -18 -7z m30 -9 c-4 -6 -2 -16 3 -23 5 -7 7 -21 5 -32
-2 -11 -5 -26 -5 -32 -1 -9 -5 -10 -14 -2 -10 8 -18 7 -29 -5 -12 -12 -13 -16
-3 -17 10 0 10 -2 0 -6 -10 -4 -10 -8 0 -21 12 -14 11 -14 -10 -1 -12 8 -17
16 -12 17 8 3 7 8 0 17 -8 9 -8 15 0 20 6 3 8 11 4 16 -3 5 0 8 7 7 7 -2 15 5
17 16 3 13 0 16 -10 11 -7 -5 -2 4 11 18 24 26 49 38 36 17z"/>
<path d="M1955 670 c-4 -6 -3 -10 2 -9 18 3 28 -1 18 -9 -5 -4 -21 -21 -35
-37 l-25 -30 25 22 c14 12 29 22 34 22 15 1 16 29 1 41 -9 8 -15 8 -20 0z"/>
<path d="M2345 560 c-3 -6 1 -7 9 -4 18 7 21 14 7 14 -6 0 -13 -4 -16 -10z"/>
<path d="M2294 544 c1 -8 4 -15 7 -16 2 -2 3 -1 2 1 -2 2 2 9 7 16 7 8 5 12
-4 12 -8 0 -13 -6 -12 -13z"/>
<path d="M1426 514 c-9 -23 3 -37 19 -24 8 7 19 9 25 5 11 -7 27 22 17 31 -3
3 -18 -3 -34 -13 -25 -16 -27 -16 -14 0 7 9 9 17 3 17 -5 0 -13 -7 -16 -16z"/>
<path d="M2255 501 c-6 -11 13 -26 22 -17 4 3 1 6 -6 6 -7 0 -9 5 -6 10 3 6 4
10 1 10 -3 0 -7 -4 -11 -9z"/>
</g>
</svg>
